<mxfile host="app.diagrams.net" modified="2023-03-30T18:53:28.760Z" agent="Mozilla/5.0 (Windows NT 10.0; Win64; x64) AppleWebKit/537.36 (KHTML, like Gecko) Chrome/110.0.0.0 Safari/537.36 OPR/96.0.0.0" etag="3UIv3MzG7dIZiDO7wvW_" version="21.1.1" type="device">
  <diagram name="Página-1" id="Sk4mW7jFgbN_oK-MT_47">
    <mxGraphModel dx="5307" dy="3002" grid="1" gridSize="10" guides="1" tooltips="1" connect="1" arrows="1" fold="1" page="1" pageScale="1" pageWidth="827" pageHeight="1169" math="0" shadow="0">
      <root>
        <mxCell id="0" />
        <mxCell id="1" parent="0" />
        <mxCell id="9WD0qOLTzXB-JECReqoN-39" style="edgeStyle=orthogonalEdgeStyle;rounded=0;orthogonalLoop=1;jettySize=auto;html=1;entryX=0.5;entryY=0;entryDx=0;entryDy=0;" edge="1" parent="1" source="9WD0qOLTzXB-JECReqoN-1" target="9WD0qOLTzXB-JECReqoN-38">
          <mxGeometry relative="1" as="geometry" />
        </mxCell>
        <mxCell id="9WD0qOLTzXB-JECReqoN-1" value="RottenApp" style="rounded=0;whiteSpace=wrap;html=1;" vertex="1" parent="1">
          <mxGeometry x="340" y="-130" width="106" height="40" as="geometry" />
        </mxCell>
        <mxCell id="9WD0qOLTzXB-JECReqoN-9" value="" style="edgeStyle=orthogonalEdgeStyle;rounded=0;orthogonalLoop=1;jettySize=auto;html=1;" edge="1" parent="1" source="9WD0qOLTzXB-JECReqoN-2" target="9WD0qOLTzXB-JECReqoN-8">
          <mxGeometry relative="1" as="geometry" />
        </mxCell>
        <mxCell id="9WD0qOLTzXB-JECReqoN-2" value="Crear cuenta" style="rounded=0;whiteSpace=wrap;html=1;" vertex="1" parent="1">
          <mxGeometry x="282" y="120" width="72" height="20" as="geometry" />
        </mxCell>
        <mxCell id="9WD0qOLTzXB-JECReqoN-44" value="" style="edgeStyle=orthogonalEdgeStyle;rounded=0;orthogonalLoop=1;jettySize=auto;html=1;" edge="1" parent="1" source="9WD0qOLTzXB-JECReqoN-4" target="9WD0qOLTzXB-JECReqoN-43">
          <mxGeometry relative="1" as="geometry" />
        </mxCell>
        <mxCell id="9WD0qOLTzXB-JECReqoN-4" value="Iniciar Sesión" style="rounded=0;whiteSpace=wrap;html=1;" vertex="1" parent="1">
          <mxGeometry x="670" y="120" width="80" height="20" as="geometry" />
        </mxCell>
        <mxCell id="9WD0qOLTzXB-JECReqoN-11" value="" style="edgeStyle=orthogonalEdgeStyle;rounded=0;orthogonalLoop=1;jettySize=auto;html=1;" edge="1" parent="1" source="9WD0qOLTzXB-JECReqoN-8" target="9WD0qOLTzXB-JECReqoN-10">
          <mxGeometry relative="1" as="geometry" />
        </mxCell>
        <mxCell id="9WD0qOLTzXB-JECReqoN-8" value="Introducir username" style="rounded=0;whiteSpace=wrap;html=1;" vertex="1" parent="1">
          <mxGeometry x="276" y="180" width="84" height="30" as="geometry" />
        </mxCell>
        <mxCell id="9WD0qOLTzXB-JECReqoN-10" value="Existe username" style="rhombus;whiteSpace=wrap;html=1;rounded=0;" vertex="1" parent="1">
          <mxGeometry x="278" y="265" width="80" height="80" as="geometry" />
        </mxCell>
        <mxCell id="9WD0qOLTzXB-JECReqoN-22" value="" style="edgeStyle=orthogonalEdgeStyle;rounded=0;orthogonalLoop=1;jettySize=auto;html=1;" edge="1" parent="1" source="9WD0qOLTzXB-JECReqoN-12" target="9WD0qOLTzXB-JECReqoN-21">
          <mxGeometry relative="1" as="geometry" />
        </mxCell>
        <mxCell id="9WD0qOLTzXB-JECReqoN-12" value="Pedir contraseña" style="whiteSpace=wrap;html=1;rounded=0;" vertex="1" parent="1">
          <mxGeometry x="140" y="370" width="120" height="30" as="geometry" />
        </mxCell>
        <mxCell id="9WD0qOLTzXB-JECReqoN-16" value="" style="endArrow=classic;html=1;rounded=0;entryX=0.5;entryY=0;entryDx=0;entryDy=0;exitX=0;exitY=0.5;exitDx=0;exitDy=0;" edge="1" parent="1" source="9WD0qOLTzXB-JECReqoN-10" target="9WD0qOLTzXB-JECReqoN-12">
          <mxGeometry relative="1" as="geometry">
            <mxPoint x="150" y="310" as="sourcePoint" />
            <mxPoint x="250" y="310" as="targetPoint" />
            <Array as="points">
              <mxPoint x="200" y="305" />
            </Array>
          </mxGeometry>
        </mxCell>
        <mxCell id="9WD0qOLTzXB-JECReqoN-17" value="No" style="edgeLabel;resizable=0;html=1;align=center;verticalAlign=middle;" connectable="0" vertex="1" parent="9WD0qOLTzXB-JECReqoN-16">
          <mxGeometry relative="1" as="geometry">
            <mxPoint x="4" as="offset" />
          </mxGeometry>
        </mxCell>
        <mxCell id="9WD0qOLTzXB-JECReqoN-24" value="" style="edgeStyle=orthogonalEdgeStyle;rounded=0;orthogonalLoop=1;jettySize=auto;html=1;" edge="1" parent="1" source="9WD0qOLTzXB-JECReqoN-21" target="9WD0qOLTzXB-JECReqoN-23">
          <mxGeometry relative="1" as="geometry" />
        </mxCell>
        <mxCell id="9WD0qOLTzXB-JECReqoN-21" value="Vuelve a pedir contraseña" style="whiteSpace=wrap;html=1;rounded=0;" vertex="1" parent="1">
          <mxGeometry x="140" y="480" width="120" height="30" as="geometry" />
        </mxCell>
        <mxCell id="9WD0qOLTzXB-JECReqoN-30" value="" style="edgeStyle=orthogonalEdgeStyle;rounded=0;orthogonalLoop=1;jettySize=auto;html=1;" edge="1" parent="1" source="9WD0qOLTzXB-JECReqoN-23" target="9WD0qOLTzXB-JECReqoN-29">
          <mxGeometry relative="1" as="geometry" />
        </mxCell>
        <mxCell id="9WD0qOLTzXB-JECReqoN-37" value="" style="edgeStyle=orthogonalEdgeStyle;rounded=0;orthogonalLoop=1;jettySize=auto;html=1;" edge="1" parent="1" source="9WD0qOLTzXB-JECReqoN-23" target="9WD0qOLTzXB-JECReqoN-36">
          <mxGeometry relative="1" as="geometry" />
        </mxCell>
        <mxCell id="9WD0qOLTzXB-JECReqoN-23" value="Contraseña 1 = contraseña 2" style="rhombus;whiteSpace=wrap;html=1;rounded=0;" vertex="1" parent="1">
          <mxGeometry x="140" y="565" width="120" height="55" as="geometry" />
        </mxCell>
        <mxCell id="9WD0qOLTzXB-JECReqoN-31" style="edgeStyle=orthogonalEdgeStyle;rounded=0;orthogonalLoop=1;jettySize=auto;html=1;entryX=0;entryY=0.5;entryDx=0;entryDy=0;" edge="1" parent="1" source="9WD0qOLTzXB-JECReqoN-29" target="9WD0qOLTzXB-JECReqoN-8">
          <mxGeometry relative="1" as="geometry">
            <Array as="points">
              <mxPoint x="-100" y="660" />
              <mxPoint x="-100" y="195" />
            </Array>
          </mxGeometry>
        </mxCell>
        <mxCell id="9WD0qOLTzXB-JECReqoN-29" value="Mosatrar &quot;Las contraseñas no son iguales&quot;" style="whiteSpace=wrap;html=1;rounded=0;" vertex="1" parent="1">
          <mxGeometry y="640" width="100" height="40" as="geometry" />
        </mxCell>
        <mxCell id="9WD0qOLTzXB-JECReqoN-35" style="edgeStyle=orthogonalEdgeStyle;rounded=0;orthogonalLoop=1;jettySize=auto;html=1;entryX=1;entryY=0.5;entryDx=0;entryDy=0;" edge="1" parent="1" source="9WD0qOLTzXB-JECReqoN-32" target="9WD0qOLTzXB-JECReqoN-8">
          <mxGeometry relative="1" as="geometry">
            <Array as="points">
              <mxPoint x="540" y="375" />
              <mxPoint x="540" y="195" />
            </Array>
          </mxGeometry>
        </mxCell>
        <mxCell id="9WD0qOLTzXB-JECReqoN-32" value="Muestra &quot;El usuario ya existe&quot;" style="whiteSpace=wrap;html=1;rounded=0;" vertex="1" parent="1">
          <mxGeometry x="410" y="360" width="100" height="30" as="geometry" />
        </mxCell>
        <mxCell id="9WD0qOLTzXB-JECReqoN-42" style="edgeStyle=orthogonalEdgeStyle;rounded=0;orthogonalLoop=1;jettySize=auto;html=1;exitX=0.5;exitY=1;exitDx=0;exitDy=0;entryX=0.25;entryY=0;entryDx=0;entryDy=0;" edge="1" parent="1" source="9WD0qOLTzXB-JECReqoN-36" target="9WD0qOLTzXB-JECReqoN-38">
          <mxGeometry relative="1" as="geometry">
            <Array as="points">
              <mxPoint x="400" y="700" />
              <mxPoint x="-310" y="700" />
              <mxPoint x="-310" y="-10" />
              <mxPoint x="375" y="-10" />
            </Array>
          </mxGeometry>
        </mxCell>
        <mxCell id="9WD0qOLTzXB-JECReqoN-36" value="Cuenta Creada" style="whiteSpace=wrap;html=1;rounded=0;" vertex="1" parent="1">
          <mxGeometry x="340" y="562.5" width="120" height="60" as="geometry" />
        </mxCell>
        <mxCell id="9WD0qOLTzXB-JECReqoN-40" style="edgeStyle=orthogonalEdgeStyle;rounded=0;orthogonalLoop=1;jettySize=auto;html=1;entryX=0.5;entryY=0;entryDx=0;entryDy=0;" edge="1" parent="1" source="9WD0qOLTzXB-JECReqoN-38" target="9WD0qOLTzXB-JECReqoN-2">
          <mxGeometry relative="1" as="geometry" />
        </mxCell>
        <mxCell id="9WD0qOLTzXB-JECReqoN-41" style="edgeStyle=orthogonalEdgeStyle;rounded=0;orthogonalLoop=1;jettySize=auto;html=1;entryX=0.5;entryY=0;entryDx=0;entryDy=0;" edge="1" parent="1" source="9WD0qOLTzXB-JECReqoN-38" target="9WD0qOLTzXB-JECReqoN-4">
          <mxGeometry relative="1" as="geometry" />
        </mxCell>
        <mxCell id="9WD0qOLTzXB-JECReqoN-38" value="Menu login" style="rounded=0;whiteSpace=wrap;html=1;" vertex="1" parent="1">
          <mxGeometry x="358" y="10" width="70" height="20" as="geometry" />
        </mxCell>
        <mxCell id="9WD0qOLTzXB-JECReqoN-46" value="" style="edgeStyle=orthogonalEdgeStyle;rounded=0;orthogonalLoop=1;jettySize=auto;html=1;" edge="1" parent="1" source="9WD0qOLTzXB-JECReqoN-43" target="9WD0qOLTzXB-JECReqoN-45">
          <mxGeometry relative="1" as="geometry" />
        </mxCell>
        <mxCell id="9WD0qOLTzXB-JECReqoN-43" value="Introducir Username" style="whiteSpace=wrap;html=1;rounded=0;" vertex="1" parent="1">
          <mxGeometry x="665" y="200" width="90" height="30" as="geometry" />
        </mxCell>
        <mxCell id="9WD0qOLTzXB-JECReqoN-48" value="" style="edgeStyle=orthogonalEdgeStyle;rounded=0;orthogonalLoop=1;jettySize=auto;html=1;" edge="1" parent="1" source="9WD0qOLTzXB-JECReqoN-45" target="9WD0qOLTzXB-JECReqoN-47">
          <mxGeometry relative="1" as="geometry" />
        </mxCell>
        <mxCell id="9WD0qOLTzXB-JECReqoN-77" value="" style="edgeStyle=orthogonalEdgeStyle;rounded=0;orthogonalLoop=1;jettySize=auto;html=1;" edge="1" parent="1" source="9WD0qOLTzXB-JECReqoN-45" target="9WD0qOLTzXB-JECReqoN-76">
          <mxGeometry relative="1" as="geometry" />
        </mxCell>
        <mxCell id="9WD0qOLTzXB-JECReqoN-45" value="Usuario Existe" style="rhombus;whiteSpace=wrap;html=1;rounded=0;" vertex="1" parent="1">
          <mxGeometry x="665" y="280" width="90" height="65" as="geometry" />
        </mxCell>
        <mxCell id="9WD0qOLTzXB-JECReqoN-55" style="edgeStyle=orthogonalEdgeStyle;rounded=0;orthogonalLoop=1;jettySize=auto;html=1;exitX=0.25;exitY=0;exitDx=0;exitDy=0;entryX=1;entryY=0.75;entryDx=0;entryDy=0;" edge="1" parent="1" source="9WD0qOLTzXB-JECReqoN-47" target="9WD0qOLTzXB-JECReqoN-38">
          <mxGeometry relative="1" as="geometry" />
        </mxCell>
        <mxCell id="9WD0qOLTzXB-JECReqoN-47" value="Mostrar &quot;Usuario no existe&quot;" style="whiteSpace=wrap;html=1;rounded=0;" vertex="1" parent="1">
          <mxGeometry x="530" y="430" width="100" height="30" as="geometry" />
        </mxCell>
        <mxCell id="9WD0qOLTzXB-JECReqoN-53" value="" style="endArrow=classic;html=1;rounded=0;entryX=0.5;entryY=0;entryDx=0;entryDy=0;exitX=1;exitY=0.5;exitDx=0;exitDy=0;" edge="1" parent="1" source="9WD0qOLTzXB-JECReqoN-10" target="9WD0qOLTzXB-JECReqoN-32">
          <mxGeometry relative="1" as="geometry">
            <mxPoint x="468" y="300" as="sourcePoint" />
            <mxPoint x="390" y="365" as="targetPoint" />
            <Array as="points">
              <mxPoint x="460" y="305" />
            </Array>
          </mxGeometry>
        </mxCell>
        <mxCell id="9WD0qOLTzXB-JECReqoN-54" value="Si" style="edgeLabel;resizable=0;html=1;align=center;verticalAlign=middle;" connectable="0" vertex="1" parent="9WD0qOLTzXB-JECReqoN-53">
          <mxGeometry relative="1" as="geometry">
            <mxPoint x="4" as="offset" />
          </mxGeometry>
        </mxCell>
        <mxCell id="9WD0qOLTzXB-JECReqoN-59" value="" style="edgeStyle=orthogonalEdgeStyle;rounded=0;orthogonalLoop=1;jettySize=auto;html=1;" edge="1" parent="1" source="9WD0qOLTzXB-JECReqoN-56" target="9WD0qOLTzXB-JECReqoN-58">
          <mxGeometry relative="1" as="geometry" />
        </mxCell>
        <mxCell id="9WD0qOLTzXB-JECReqoN-56" value="Pedir contraseña" style="whiteSpace=wrap;html=1;rounded=0;" vertex="1" parent="1">
          <mxGeometry x="800" y="520" width="80" height="30" as="geometry" />
        </mxCell>
        <mxCell id="9WD0qOLTzXB-JECReqoN-61" value="" style="edgeStyle=orthogonalEdgeStyle;rounded=0;orthogonalLoop=1;jettySize=auto;html=1;" edge="1" parent="1" source="9WD0qOLTzXB-JECReqoN-58" target="9WD0qOLTzXB-JECReqoN-60">
          <mxGeometry relative="1" as="geometry" />
        </mxCell>
        <mxCell id="9WD0qOLTzXB-JECReqoN-64" value="" style="edgeStyle=orthogonalEdgeStyle;rounded=0;orthogonalLoop=1;jettySize=auto;html=1;entryX=0.5;entryY=0;entryDx=0;entryDy=0;" edge="1" parent="1" source="9WD0qOLTzXB-JECReqoN-58" target="9WD0qOLTzXB-JECReqoN-68">
          <mxGeometry relative="1" as="geometry">
            <mxPoint x="1015" y="620" as="targetPoint" />
          </mxGeometry>
        </mxCell>
        <mxCell id="9WD0qOLTzXB-JECReqoN-58" value="Contraseña correcta" style="rhombus;whiteSpace=wrap;html=1;rounded=0;" vertex="1" parent="1">
          <mxGeometry x="790" y="622.5" width="100" height="55" as="geometry" />
        </mxCell>
        <mxCell id="9WD0qOLTzXB-JECReqoN-62" style="edgeStyle=orthogonalEdgeStyle;rounded=0;orthogonalLoop=1;jettySize=auto;html=1;exitX=0.5;exitY=1;exitDx=0;exitDy=0;entryX=0.75;entryY=0;entryDx=0;entryDy=0;" edge="1" parent="1" source="9WD0qOLTzXB-JECReqoN-60" target="9WD0qOLTzXB-JECReqoN-38">
          <mxGeometry relative="1" as="geometry" />
        </mxCell>
        <mxCell id="9WD0qOLTzXB-JECReqoN-60" value="Mostrar &quot;Contraseña incorrecta&quot;" style="whiteSpace=wrap;html=1;rounded=0;" vertex="1" parent="1">
          <mxGeometry x="610" y="690" width="100" height="40" as="geometry" />
        </mxCell>
        <mxCell id="9WD0qOLTzXB-JECReqoN-70" value="" style="edgeStyle=orthogonalEdgeStyle;rounded=0;orthogonalLoop=1;jettySize=auto;html=1;" edge="1" parent="1" source="9WD0qOLTzXB-JECReqoN-68" target="9WD0qOLTzXB-JECReqoN-69">
          <mxGeometry relative="1" as="geometry" />
        </mxCell>
        <mxCell id="9WD0qOLTzXB-JECReqoN-68" value="Mostrar Menú principal" style="rounded=0;whiteSpace=wrap;html=1;" vertex="1" parent="1">
          <mxGeometry x="960" y="700" width="110" height="40" as="geometry" />
        </mxCell>
        <mxCell id="9WD0qOLTzXB-JECReqoN-73" value="" style="edgeStyle=orthogonalEdgeStyle;rounded=0;orthogonalLoop=1;jettySize=auto;html=1;" edge="1" parent="1" source="9WD0qOLTzXB-JECReqoN-69" target="9WD0qOLTzXB-JECReqoN-72">
          <mxGeometry relative="1" as="geometry" />
        </mxCell>
        <mxCell id="9WD0qOLTzXB-JECReqoN-75" value="" style="edgeStyle=orthogonalEdgeStyle;rounded=0;orthogonalLoop=1;jettySize=auto;html=1;" edge="1" parent="1" source="9WD0qOLTzXB-JECReqoN-69" target="9WD0qOLTzXB-JECReqoN-74">
          <mxGeometry relative="1" as="geometry" />
        </mxCell>
        <mxCell id="9WD0qOLTzXB-JECReqoN-69" value="Es admin" style="rhombus;whiteSpace=wrap;html=1;rounded=0;" vertex="1" parent="1">
          <mxGeometry x="977.5" y="790" width="75" height="50" as="geometry" />
        </mxCell>
        <mxCell id="9WD0qOLTzXB-JECReqoN-83" style="edgeStyle=orthogonalEdgeStyle;rounded=0;orthogonalLoop=1;jettySize=auto;html=1;exitX=0;exitY=0.5;exitDx=0;exitDy=0;entryX=0.25;entryY=0;entryDx=0;entryDy=0;" edge="1" parent="1" source="9WD0qOLTzXB-JECReqoN-72" target="9WD0qOLTzXB-JECReqoN-82">
          <mxGeometry relative="1" as="geometry" />
        </mxCell>
        <mxCell id="9WD0qOLTzXB-JECReqoN-115" style="edgeStyle=orthogonalEdgeStyle;rounded=0;orthogonalLoop=1;jettySize=auto;html=1;exitX=0.5;exitY=1;exitDx=0;exitDy=0;entryX=0;entryY=0.5;entryDx=0;entryDy=0;" edge="1" parent="1" source="9WD0qOLTzXB-JECReqoN-72" target="9WD0qOLTzXB-JECReqoN-114">
          <mxGeometry relative="1" as="geometry" />
        </mxCell>
        <mxCell id="9WD0qOLTzXB-JECReqoN-244" style="edgeStyle=orthogonalEdgeStyle;rounded=0;orthogonalLoop=1;jettySize=auto;html=1;exitX=0.75;exitY=1;exitDx=0;exitDy=0;" edge="1" parent="1" source="9WD0qOLTzXB-JECReqoN-72" target="9WD0qOLTzXB-JECReqoN-243">
          <mxGeometry relative="1" as="geometry">
            <mxPoint x="2330" y="980" as="targetPoint" />
            <Array as="points">
              <mxPoint x="925" y="930" />
              <mxPoint x="2090" y="930" />
              <mxPoint x="2090" y="1000" />
              <mxPoint x="2330" y="1000" />
            </Array>
          </mxGeometry>
        </mxCell>
        <mxCell id="9WD0qOLTzXB-JECReqoN-72" value="Mostrar Opciones normales" style="whiteSpace=wrap;html=1;rounded=0;" vertex="1" parent="1">
          <mxGeometry x="850" y="870" width="100" height="30" as="geometry" />
        </mxCell>
        <mxCell id="9WD0qOLTzXB-JECReqoN-85" style="edgeStyle=orthogonalEdgeStyle;rounded=0;orthogonalLoop=1;jettySize=auto;html=1;exitX=0;exitY=0.5;exitDx=0;exitDy=0;entryX=1;entryY=0.5;entryDx=0;entryDy=0;" edge="1" parent="1" source="9WD0qOLTzXB-JECReqoN-74" target="9WD0qOLTzXB-JECReqoN-82">
          <mxGeometry relative="1" as="geometry">
            <Array as="points">
              <mxPoint x="1070" y="955" />
            </Array>
          </mxGeometry>
        </mxCell>
        <mxCell id="9WD0qOLTzXB-JECReqoN-116" style="edgeStyle=orthogonalEdgeStyle;rounded=0;orthogonalLoop=1;jettySize=auto;html=1;exitX=0.5;exitY=1;exitDx=0;exitDy=0;entryX=1;entryY=0.5;entryDx=0;entryDy=0;" edge="1" parent="1" source="9WD0qOLTzXB-JECReqoN-74" target="9WD0qOLTzXB-JECReqoN-114">
          <mxGeometry relative="1" as="geometry" />
        </mxCell>
        <mxCell id="9WD0qOLTzXB-JECReqoN-245" style="edgeStyle=orthogonalEdgeStyle;rounded=0;orthogonalLoop=1;jettySize=auto;html=1;exitX=1;exitY=0.5;exitDx=0;exitDy=0;entryX=0;entryY=0.5;entryDx=0;entryDy=0;" edge="1" parent="1" source="9WD0qOLTzXB-JECReqoN-74" target="9WD0qOLTzXB-JECReqoN-243">
          <mxGeometry relative="1" as="geometry" />
        </mxCell>
        <mxCell id="9WD0qOLTzXB-JECReqoN-282" style="edgeStyle=orthogonalEdgeStyle;rounded=0;orthogonalLoop=1;jettySize=auto;html=1;exitX=1;exitY=0;exitDx=0;exitDy=0;" edge="1" parent="1" source="9WD0qOLTzXB-JECReqoN-74" target="9WD0qOLTzXB-JECReqoN-283">
          <mxGeometry relative="1" as="geometry">
            <mxPoint x="3000" y="950" as="targetPoint" />
          </mxGeometry>
        </mxCell>
        <mxCell id="9WD0qOLTzXB-JECReqoN-305" style="edgeStyle=orthogonalEdgeStyle;rounded=0;orthogonalLoop=1;jettySize=auto;html=1;exitX=0.75;exitY=0;exitDx=0;exitDy=0;" edge="1" parent="1" source="9WD0qOLTzXB-JECReqoN-74">
          <mxGeometry relative="1" as="geometry">
            <mxPoint x="3835" y="880" as="targetPoint" />
            <Array as="points">
              <mxPoint x="1168" y="814" />
              <mxPoint x="3835" y="814" />
            </Array>
          </mxGeometry>
        </mxCell>
        <mxCell id="9WD0qOLTzXB-JECReqoN-74" value="Mostrar Opciones especiales + normales" style="whiteSpace=wrap;html=1;rounded=0;" vertex="1" parent="1">
          <mxGeometry x="1070" y="867.5" width="130" height="35" as="geometry" />
        </mxCell>
        <mxCell id="9WD0qOLTzXB-JECReqoN-78" style="edgeStyle=orthogonalEdgeStyle;rounded=0;orthogonalLoop=1;jettySize=auto;html=1;exitX=0;exitY=0.5;exitDx=0;exitDy=0;entryX=0;entryY=0.5;entryDx=0;entryDy=0;" edge="1" parent="1" source="9WD0qOLTzXB-JECReqoN-76" target="9WD0qOLTzXB-JECReqoN-56">
          <mxGeometry relative="1" as="geometry" />
        </mxCell>
        <mxCell id="9WD0qOLTzXB-JECReqoN-80" value="" style="edgeStyle=orthogonalEdgeStyle;rounded=0;orthogonalLoop=1;jettySize=auto;html=1;" edge="1" parent="1" source="9WD0qOLTzXB-JECReqoN-76" target="9WD0qOLTzXB-JECReqoN-79">
          <mxGeometry relative="1" as="geometry" />
        </mxCell>
        <mxCell id="9WD0qOLTzXB-JECReqoN-76" value="Usuario Bloqueado" style="rhombus;whiteSpace=wrap;html=1;rounded=0;" vertex="1" parent="1">
          <mxGeometry x="770" y="355" width="105" height="60" as="geometry" />
        </mxCell>
        <mxCell id="9WD0qOLTzXB-JECReqoN-81" style="edgeStyle=orthogonalEdgeStyle;rounded=0;orthogonalLoop=1;jettySize=auto;html=1;exitX=0.5;exitY=0;exitDx=0;exitDy=0;entryX=1;entryY=0;entryDx=0;entryDy=0;" edge="1" parent="1" source="9WD0qOLTzXB-JECReqoN-79" target="9WD0qOLTzXB-JECReqoN-38">
          <mxGeometry relative="1" as="geometry" />
        </mxCell>
        <mxCell id="9WD0qOLTzXB-JECReqoN-79" value="Mostrar &quot;Usuario bloqueado&quot;" style="whiteSpace=wrap;html=1;rounded=0;" vertex="1" parent="1">
          <mxGeometry x="942.5" y="367.5" width="110" height="35" as="geometry" />
        </mxCell>
        <mxCell id="9WD0qOLTzXB-JECReqoN-87" value="" style="edgeStyle=orthogonalEdgeStyle;rounded=0;orthogonalLoop=1;jettySize=auto;html=1;" edge="1" parent="1" source="9WD0qOLTzXB-JECReqoN-82" target="9WD0qOLTzXB-JECReqoN-86">
          <mxGeometry relative="1" as="geometry" />
        </mxCell>
        <mxCell id="9WD0qOLTzXB-JECReqoN-82" value="CrearPelícula" style="rounded=0;whiteSpace=wrap;html=1;" vertex="1" parent="1">
          <mxGeometry x="550" y="940" width="80" height="30" as="geometry" />
        </mxCell>
        <mxCell id="9WD0qOLTzXB-JECReqoN-89" value="" style="edgeStyle=orthogonalEdgeStyle;rounded=0;orthogonalLoop=1;jettySize=auto;html=1;" edge="1" parent="1" source="9WD0qOLTzXB-JECReqoN-86" target="9WD0qOLTzXB-JECReqoN-88">
          <mxGeometry relative="1" as="geometry" />
        </mxCell>
        <mxCell id="9WD0qOLTzXB-JECReqoN-86" value="Pedir Titulo" style="whiteSpace=wrap;html=1;rounded=0;" vertex="1" parent="1">
          <mxGeometry x="555" y="1010" width="70" height="15" as="geometry" />
        </mxCell>
        <mxCell id="9WD0qOLTzXB-JECReqoN-91" value="" style="edgeStyle=orthogonalEdgeStyle;rounded=0;orthogonalLoop=1;jettySize=auto;html=1;" edge="1" parent="1" source="9WD0qOLTzXB-JECReqoN-88" target="9WD0qOLTzXB-JECReqoN-90">
          <mxGeometry relative="1" as="geometry" />
        </mxCell>
        <mxCell id="9WD0qOLTzXB-JECReqoN-88" value="Pedir duarción" style="whiteSpace=wrap;html=1;rounded=0;" vertex="1" parent="1">
          <mxGeometry x="545" y="1050" width="90" height="17.5" as="geometry" />
        </mxCell>
        <mxCell id="9WD0qOLTzXB-JECReqoN-93" value="" style="edgeStyle=orthogonalEdgeStyle;rounded=0;orthogonalLoop=1;jettySize=auto;html=1;" edge="1" parent="1" source="9WD0qOLTzXB-JECReqoN-90" target="9WD0qOLTzXB-JECReqoN-92">
          <mxGeometry relative="1" as="geometry" />
        </mxCell>
        <mxCell id="9WD0qOLTzXB-JECReqoN-90" value="Pedir Autor" style="whiteSpace=wrap;html=1;rounded=0;" vertex="1" parent="1">
          <mxGeometry x="555" y="1100" width="70" height="13.75" as="geometry" />
        </mxCell>
        <mxCell id="9WD0qOLTzXB-JECReqoN-95" value="" style="edgeStyle=orthogonalEdgeStyle;rounded=0;orthogonalLoop=1;jettySize=auto;html=1;" edge="1" parent="1" source="9WD0qOLTzXB-JECReqoN-92" target="9WD0qOLTzXB-JECReqoN-94">
          <mxGeometry relative="1" as="geometry" />
        </mxCell>
        <mxCell id="9WD0qOLTzXB-JECReqoN-92" value="Dar la valoración" style="whiteSpace=wrap;html=1;rounded=0;" vertex="1" parent="1">
          <mxGeometry x="535" y="1149.6200000000001" width="100" height="19.38" as="geometry" />
        </mxCell>
        <mxCell id="9WD0qOLTzXB-JECReqoN-97" value="" style="edgeStyle=orthogonalEdgeStyle;rounded=0;orthogonalLoop=1;jettySize=auto;html=1;" edge="1" parent="1" source="9WD0qOLTzXB-JECReqoN-94" target="9WD0qOLTzXB-JECReqoN-96">
          <mxGeometry relative="1" as="geometry" />
        </mxCell>
        <mxCell id="9WD0qOLTzXB-JECReqoN-94" value="Seleccionar Género" style="whiteSpace=wrap;html=1;rounded=0;" vertex="1" parent="1">
          <mxGeometry x="527.5" y="1210" width="115" height="21.31" as="geometry" />
        </mxCell>
        <mxCell id="9WD0qOLTzXB-JECReqoN-99" value="" style="edgeStyle=orthogonalEdgeStyle;rounded=0;orthogonalLoop=1;jettySize=auto;html=1;" edge="1" parent="1" source="9WD0qOLTzXB-JECReqoN-96" target="9WD0qOLTzXB-JECReqoN-98">
          <mxGeometry relative="1" as="geometry" />
        </mxCell>
        <mxCell id="9WD0qOLTzXB-JECReqoN-102" value="" style="edgeStyle=orthogonalEdgeStyle;rounded=0;orthogonalLoop=1;jettySize=auto;html=1;" edge="1" parent="1" source="9WD0qOLTzXB-JECReqoN-96" target="9WD0qOLTzXB-JECReqoN-101">
          <mxGeometry relative="1" as="geometry" />
        </mxCell>
        <mxCell id="9WD0qOLTzXB-JECReqoN-96" value="Selección Válida" style="rhombus;whiteSpace=wrap;html=1;rounded=0;" vertex="1" parent="1">
          <mxGeometry x="532.5" y="1281.96" width="105" height="48.04" as="geometry" />
        </mxCell>
        <mxCell id="9WD0qOLTzXB-JECReqoN-100" style="edgeStyle=orthogonalEdgeStyle;rounded=0;orthogonalLoop=1;jettySize=auto;html=1;entryX=0;entryY=0.5;entryDx=0;entryDy=0;" edge="1" parent="1" source="9WD0qOLTzXB-JECReqoN-98" target="9WD0qOLTzXB-JECReqoN-68">
          <mxGeometry relative="1" as="geometry">
            <Array as="points">
              <mxPoint x="400" y="770" />
              <mxPoint x="960" y="770" />
            </Array>
          </mxGeometry>
        </mxCell>
        <mxCell id="9WD0qOLTzXB-JECReqoN-98" value="Mostrar &quot;Selección inválida&quot;" style="whiteSpace=wrap;html=1;rounded=0;" vertex="1" parent="1">
          <mxGeometry x="340" y="1275.98" width="120" height="60" as="geometry" />
        </mxCell>
        <mxCell id="9WD0qOLTzXB-JECReqoN-104" value="" style="edgeStyle=orthogonalEdgeStyle;rounded=0;orthogonalLoop=1;jettySize=auto;html=1;" edge="1" parent="1" source="9WD0qOLTzXB-JECReqoN-101" target="9WD0qOLTzXB-JECReqoN-103">
          <mxGeometry relative="1" as="geometry" />
        </mxCell>
        <mxCell id="9WD0qOLTzXB-JECReqoN-101" value="Añadir Descripción" style="whiteSpace=wrap;html=1;rounded=0;" vertex="1" parent="1">
          <mxGeometry x="680" y="1380" width="90" height="30" as="geometry" />
        </mxCell>
        <mxCell id="9WD0qOLTzXB-JECReqoN-106" value="" style="edgeStyle=orthogonalEdgeStyle;rounded=0;orthogonalLoop=1;jettySize=auto;html=1;" edge="1" parent="1" source="9WD0qOLTzXB-JECReqoN-103" target="9WD0qOLTzXB-JECReqoN-105">
          <mxGeometry relative="1" as="geometry" />
        </mxCell>
        <mxCell id="9WD0qOLTzXB-JECReqoN-110" value="" style="edgeStyle=orthogonalEdgeStyle;rounded=0;orthogonalLoop=1;jettySize=auto;html=1;" edge="1" parent="1" source="9WD0qOLTzXB-JECReqoN-103" target="9WD0qOLTzXB-JECReqoN-109">
          <mxGeometry relative="1" as="geometry" />
        </mxCell>
        <mxCell id="9WD0qOLTzXB-JECReqoN-103" value="Comprobación total = true" style="rhombus;whiteSpace=wrap;html=1;rounded=0;" vertex="1" parent="1">
          <mxGeometry x="685" y="1465" width="80" height="80" as="geometry" />
        </mxCell>
        <mxCell id="9WD0qOLTzXB-JECReqoN-105" value="Mostrar &quot;Has introducido valores incorrectos&quot;" style="whiteSpace=wrap;html=1;rounded=0;" vertex="1" parent="1">
          <mxGeometry x="510" y="1560" width="110" height="40" as="geometry" />
        </mxCell>
        <mxCell id="9WD0qOLTzXB-JECReqoN-108" value="" style="endArrow=classic;html=1;rounded=0;exitX=0;exitY=0.5;exitDx=0;exitDy=0;" edge="1" parent="1" source="9WD0qOLTzXB-JECReqoN-105">
          <mxGeometry width="50" height="50" relative="1" as="geometry">
            <mxPoint x="378" y="1580" as="sourcePoint" />
            <mxPoint x="400" y="770" as="targetPoint" />
            <Array as="points">
              <mxPoint x="370" y="1580" />
              <mxPoint x="210" y="1580" />
              <mxPoint x="210" y="960" />
              <mxPoint x="210" y="770" />
            </Array>
          </mxGeometry>
        </mxCell>
        <mxCell id="9WD0qOLTzXB-JECReqoN-109" value="Añadir Película" style="whiteSpace=wrap;html=1;rounded=0;" vertex="1" parent="1">
          <mxGeometry x="810" y="1560" width="90" height="20" as="geometry" />
        </mxCell>
        <mxCell id="9WD0qOLTzXB-JECReqoN-113" value="" style="endArrow=classic;html=1;rounded=0;exitX=0.5;exitY=1;exitDx=0;exitDy=0;" edge="1" parent="1" source="9WD0qOLTzXB-JECReqoN-109">
          <mxGeometry width="50" height="50" relative="1" as="geometry">
            <mxPoint x="790" y="1700" as="sourcePoint" />
            <mxPoint x="400" y="1580" as="targetPoint" />
            <Array as="points">
              <mxPoint x="855" y="1800" />
              <mxPoint x="400" y="1800" />
            </Array>
          </mxGeometry>
        </mxCell>
        <mxCell id="9WD0qOLTzXB-JECReqoN-118" value="" style="edgeStyle=orthogonalEdgeStyle;rounded=0;orthogonalLoop=1;jettySize=auto;html=1;" edge="1" parent="1" source="9WD0qOLTzXB-JECReqoN-114" target="9WD0qOLTzXB-JECReqoN-117">
          <mxGeometry relative="1" as="geometry" />
        </mxCell>
        <mxCell id="9WD0qOLTzXB-JECReqoN-114" value="Ver Películas" style="rounded=0;whiteSpace=wrap;html=1;" vertex="1" parent="1">
          <mxGeometry x="1170" y="990" width="120" height="60" as="geometry" />
        </mxCell>
        <mxCell id="9WD0qOLTzXB-JECReqoN-120" value="" style="edgeStyle=orthogonalEdgeStyle;rounded=0;orthogonalLoop=1;jettySize=auto;html=1;exitX=0;exitY=0.5;exitDx=0;exitDy=0;" edge="1" parent="1" source="9WD0qOLTzXB-JECReqoN-117" target="9WD0qOLTzXB-JECReqoN-119">
          <mxGeometry relative="1" as="geometry" />
        </mxCell>
        <mxCell id="9WD0qOLTzXB-JECReqoN-122" value="" style="edgeStyle=orthogonalEdgeStyle;rounded=0;orthogonalLoop=1;jettySize=auto;html=1;" edge="1" parent="1" source="9WD0qOLTzXB-JECReqoN-117" target="9WD0qOLTzXB-JECReqoN-121">
          <mxGeometry relative="1" as="geometry" />
        </mxCell>
        <mxCell id="9WD0qOLTzXB-JECReqoN-117" value="Es admin" style="rhombus;whiteSpace=wrap;html=1;rounded=0;" vertex="1" parent="1">
          <mxGeometry x="1190" y="1089" width="80" height="80" as="geometry" />
        </mxCell>
        <mxCell id="9WD0qOLTzXB-JECReqoN-200" style="edgeStyle=orthogonalEdgeStyle;rounded=0;orthogonalLoop=1;jettySize=auto;html=1;exitX=0.75;exitY=1;exitDx=0;exitDy=0;" edge="1" parent="1" source="9WD0qOLTzXB-JECReqoN-119">
          <mxGeometry relative="1" as="geometry">
            <mxPoint x="1529.9999999999995" y="1389.9999999999995" as="targetPoint" />
            <Array as="points">
              <mxPoint x="1153" y="1330" />
              <mxPoint x="1530" y="1330" />
            </Array>
          </mxGeometry>
        </mxCell>
        <mxCell id="9WD0qOLTzXB-JECReqoN-235" style="edgeStyle=orthogonalEdgeStyle;rounded=0;orthogonalLoop=1;jettySize=auto;html=1;exitX=1;exitY=1;exitDx=0;exitDy=0;entryX=0.25;entryY=0;entryDx=0;entryDy=0;" edge="1" parent="1" source="9WD0qOLTzXB-JECReqoN-119" target="9WD0qOLTzXB-JECReqoN-237">
          <mxGeometry relative="1" as="geometry">
            <mxPoint x="1220" y="1400" as="targetPoint" />
          </mxGeometry>
        </mxCell>
        <mxCell id="9WD0qOLTzXB-JECReqoN-119" value="Mostrar Opciones normales" style="whiteSpace=wrap;html=1;rounded=0;" vertex="1" parent="1">
          <mxGeometry x="1070" y="1245.98" width="110" height="30" as="geometry" />
        </mxCell>
        <mxCell id="9WD0qOLTzXB-JECReqoN-126" style="edgeStyle=orthogonalEdgeStyle;rounded=0;orthogonalLoop=1;jettySize=auto;html=1;exitX=0;exitY=0.5;exitDx=0;exitDy=0;entryX=1;entryY=0.5;entryDx=0;entryDy=0;" edge="1" parent="1" source="9WD0qOLTzXB-JECReqoN-121" target="9WD0qOLTzXB-JECReqoN-124">
          <mxGeometry relative="1" as="geometry" />
        </mxCell>
        <mxCell id="9WD0qOLTzXB-JECReqoN-201" style="edgeStyle=orthogonalEdgeStyle;rounded=0;orthogonalLoop=1;jettySize=auto;html=1;exitX=0.5;exitY=1;exitDx=0;exitDy=0;" edge="1" parent="1" source="9WD0qOLTzXB-JECReqoN-121">
          <mxGeometry relative="1" as="geometry">
            <mxPoint x="1509.9999999999995" y="1389.9999999999995" as="targetPoint" />
          </mxGeometry>
        </mxCell>
        <mxCell id="9WD0qOLTzXB-JECReqoN-236" style="edgeStyle=orthogonalEdgeStyle;rounded=0;orthogonalLoop=1;jettySize=auto;html=1;exitX=0;exitY=1;exitDx=0;exitDy=0;" edge="1" parent="1" source="9WD0qOLTzXB-JECReqoN-121" target="9WD0qOLTzXB-JECReqoN-237">
          <mxGeometry relative="1" as="geometry">
            <mxPoint x="1240" y="1400" as="targetPoint" />
            <Array as="points">
              <mxPoint x="1300" y="1370" />
              <mxPoint x="1230" y="1370" />
            </Array>
          </mxGeometry>
        </mxCell>
        <mxCell id="9WD0qOLTzXB-JECReqoN-239" style="edgeStyle=orthogonalEdgeStyle;rounded=0;orthogonalLoop=1;jettySize=auto;html=1;exitX=1;exitY=0.5;exitDx=0;exitDy=0;" edge="1" parent="1" source="9WD0qOLTzXB-JECReqoN-121">
          <mxGeometry relative="1" as="geometry">
            <mxPoint x="1930" y="1350" as="targetPoint" />
          </mxGeometry>
        </mxCell>
        <mxCell id="9WD0qOLTzXB-JECReqoN-241" style="edgeStyle=orthogonalEdgeStyle;rounded=0;orthogonalLoop=1;jettySize=auto;html=1;exitX=1;exitY=0.25;exitDx=0;exitDy=0;" edge="1" parent="1" source="9WD0qOLTzXB-JECReqoN-121" target="9WD0qOLTzXB-JECReqoN-242">
          <mxGeometry relative="1" as="geometry">
            <mxPoint x="1860" y="1360" as="targetPoint" />
          </mxGeometry>
        </mxCell>
        <mxCell id="9WD0qOLTzXB-JECReqoN-121" value="Mostrar Opciones especiales+normales" style="whiteSpace=wrap;html=1;rounded=0;" vertex="1" parent="1">
          <mxGeometry x="1300" y="1250" width="120" height="30" as="geometry" />
        </mxCell>
        <mxCell id="9WD0qOLTzXB-JECReqoN-125" style="edgeStyle=orthogonalEdgeStyle;rounded=0;orthogonalLoop=1;jettySize=auto;html=1;exitX=0.5;exitY=0;exitDx=0;exitDy=0;entryX=0;entryY=0.5;entryDx=0;entryDy=0;" edge="1" parent="1" source="9WD0qOLTzXB-JECReqoN-124" target="9WD0qOLTzXB-JECReqoN-119">
          <mxGeometry relative="1" as="geometry" />
        </mxCell>
        <mxCell id="9WD0qOLTzXB-JECReqoN-128" value="" style="edgeStyle=orthogonalEdgeStyle;rounded=0;orthogonalLoop=1;jettySize=auto;html=1;" edge="1" parent="1" source="9WD0qOLTzXB-JECReqoN-124" target="9WD0qOLTzXB-JECReqoN-127">
          <mxGeometry relative="1" as="geometry" />
        </mxCell>
        <mxCell id="9WD0qOLTzXB-JECReqoN-124" value="Ver todas las películas" style="rounded=0;whiteSpace=wrap;html=1;" vertex="1" parent="1">
          <mxGeometry x="1076.88" y="1350" width="92.5" height="30" as="geometry" />
        </mxCell>
        <mxCell id="9WD0qOLTzXB-JECReqoN-130" value="" style="edgeStyle=orthogonalEdgeStyle;rounded=0;orthogonalLoop=1;jettySize=auto;html=1;" edge="1" parent="1" source="9WD0qOLTzXB-JECReqoN-127" target="9WD0qOLTzXB-JECReqoN-129">
          <mxGeometry relative="1" as="geometry" />
        </mxCell>
        <mxCell id="9WD0qOLTzXB-JECReqoN-127" value="Elegir Película" style="whiteSpace=wrap;html=1;rounded=0;" vertex="1" parent="1">
          <mxGeometry x="1080.01" y="1420" width="86.25" height="25" as="geometry" />
        </mxCell>
        <mxCell id="9WD0qOLTzXB-JECReqoN-136" value="" style="edgeStyle=orthogonalEdgeStyle;rounded=0;orthogonalLoop=1;jettySize=auto;html=1;" edge="1" parent="1" source="9WD0qOLTzXB-JECReqoN-129" target="9WD0qOLTzXB-JECReqoN-135">
          <mxGeometry relative="1" as="geometry" />
        </mxCell>
        <mxCell id="9WD0qOLTzXB-JECReqoN-139" value="" style="edgeStyle=orthogonalEdgeStyle;rounded=0;orthogonalLoop=1;jettySize=auto;html=1;" edge="1" parent="1" source="9WD0qOLTzXB-JECReqoN-129" target="9WD0qOLTzXB-JECReqoN-138">
          <mxGeometry relative="1" as="geometry" />
        </mxCell>
        <mxCell id="9WD0qOLTzXB-JECReqoN-129" value="Película existe" style="rhombus;whiteSpace=wrap;html=1;rounded=0;" vertex="1" parent="1">
          <mxGeometry x="1070" y="1492.5" width="106.25" height="52.5" as="geometry" />
        </mxCell>
        <mxCell id="9WD0qOLTzXB-JECReqoN-137" style="edgeStyle=orthogonalEdgeStyle;rounded=0;orthogonalLoop=1;jettySize=auto;html=1;" edge="1" parent="1" source="9WD0qOLTzXB-JECReqoN-135">
          <mxGeometry relative="1" as="geometry">
            <mxPoint x="860" y="1750" as="targetPoint" />
            <Array as="points">
              <mxPoint x="970" y="1760" />
              <mxPoint x="860" y="1760" />
            </Array>
          </mxGeometry>
        </mxCell>
        <mxCell id="9WD0qOLTzXB-JECReqoN-135" value="Mostrar &quot;no existe&quot;" style="whiteSpace=wrap;html=1;rounded=0;" vertex="1" parent="1">
          <mxGeometry x="930.01" y="1570" width="79.99" height="20" as="geometry" />
        </mxCell>
        <mxCell id="9WD0qOLTzXB-JECReqoN-141" value="" style="edgeStyle=orthogonalEdgeStyle;rounded=0;orthogonalLoop=1;jettySize=auto;html=1;" edge="1" parent="1" source="9WD0qOLTzXB-JECReqoN-138" target="9WD0qOLTzXB-JECReqoN-140">
          <mxGeometry relative="1" as="geometry" />
        </mxCell>
        <mxCell id="9WD0qOLTzXB-JECReqoN-138" value="Imprimir Ficha" style="whiteSpace=wrap;html=1;rounded=0;" vertex="1" parent="1">
          <mxGeometry x="1189.9950000000001" y="1550" width="120" height="60" as="geometry" />
        </mxCell>
        <mxCell id="9WD0qOLTzXB-JECReqoN-143" value="" style="edgeStyle=orthogonalEdgeStyle;rounded=0;orthogonalLoop=1;jettySize=auto;html=1;" edge="1" parent="1" source="9WD0qOLTzXB-JECReqoN-140" target="9WD0qOLTzXB-JECReqoN-142">
          <mxGeometry relative="1" as="geometry" />
        </mxCell>
        <mxCell id="9WD0qOLTzXB-JECReqoN-145" value="" style="edgeStyle=orthogonalEdgeStyle;rounded=0;orthogonalLoop=1;jettySize=auto;html=1;" edge="1" parent="1" source="9WD0qOLTzXB-JECReqoN-140" target="9WD0qOLTzXB-JECReqoN-144">
          <mxGeometry relative="1" as="geometry" />
        </mxCell>
        <mxCell id="9WD0qOLTzXB-JECReqoN-140" value="Hay comentarios" style="rhombus;whiteSpace=wrap;html=1;rounded=0;" vertex="1" parent="1">
          <mxGeometry x="1210" y="1680" width="120" height="70" as="geometry" />
        </mxCell>
        <mxCell id="9WD0qOLTzXB-JECReqoN-163" style="edgeStyle=orthogonalEdgeStyle;rounded=0;orthogonalLoop=1;jettySize=auto;html=1;exitX=0.5;exitY=1;exitDx=0;exitDy=0;entryX=0;entryY=0.5;entryDx=0;entryDy=0;" edge="1" parent="1" source="9WD0qOLTzXB-JECReqoN-142" target="9WD0qOLTzXB-JECReqoN-149">
          <mxGeometry relative="1" as="geometry" />
        </mxCell>
        <mxCell id="9WD0qOLTzXB-JECReqoN-142" value="Mostrar &quot;No hay comentarios&quot;" style="whiteSpace=wrap;html=1;rounded=0;" vertex="1" parent="1">
          <mxGeometry x="1076.88" y="1790" width="95" height="30" as="geometry" />
        </mxCell>
        <mxCell id="9WD0qOLTzXB-JECReqoN-153" style="edgeStyle=orthogonalEdgeStyle;rounded=0;orthogonalLoop=1;jettySize=auto;html=1;exitX=0.5;exitY=1;exitDx=0;exitDy=0;entryX=1;entryY=0.5;entryDx=0;entryDy=0;" edge="1" parent="1" source="9WD0qOLTzXB-JECReqoN-144" target="9WD0qOLTzXB-JECReqoN-149">
          <mxGeometry relative="1" as="geometry" />
        </mxCell>
        <mxCell id="9WD0qOLTzXB-JECReqoN-144" value="Mostrar 3 últimos comentarios" style="whiteSpace=wrap;html=1;rounded=0;" vertex="1" parent="1">
          <mxGeometry x="1340" y="1792.5" width="100" height="25" as="geometry" />
        </mxCell>
        <mxCell id="9WD0qOLTzXB-JECReqoN-157" value="" style="edgeStyle=orthogonalEdgeStyle;rounded=0;orthogonalLoop=1;jettySize=auto;html=1;" edge="1" parent="1" source="9WD0qOLTzXB-JECReqoN-149" target="9WD0qOLTzXB-JECReqoN-156">
          <mxGeometry relative="1" as="geometry" />
        </mxCell>
        <mxCell id="9WD0qOLTzXB-JECReqoN-149" value="Submenú películas" style="rounded=0;whiteSpace=wrap;html=1;" vertex="1" parent="1">
          <mxGeometry x="1210" y="1890" width="89.99" height="30" as="geometry" />
        </mxCell>
        <mxCell id="9WD0qOLTzXB-JECReqoN-159" value="" style="edgeStyle=orthogonalEdgeStyle;rounded=0;orthogonalLoop=1;jettySize=auto;html=1;" edge="1" parent="1" source="9WD0qOLTzXB-JECReqoN-156" target="9WD0qOLTzXB-JECReqoN-158">
          <mxGeometry relative="1" as="geometry" />
        </mxCell>
        <mxCell id="9WD0qOLTzXB-JECReqoN-161" value="" style="edgeStyle=orthogonalEdgeStyle;rounded=0;orthogonalLoop=1;jettySize=auto;html=1;" edge="1" parent="1" source="9WD0qOLTzXB-JECReqoN-156" target="9WD0qOLTzXB-JECReqoN-160">
          <mxGeometry relative="1" as="geometry" />
        </mxCell>
        <mxCell id="9WD0qOLTzXB-JECReqoN-156" value="Es admin" style="rhombus;whiteSpace=wrap;html=1;rounded=0;" vertex="1" parent="1">
          <mxGeometry x="1220.01" y="1990" width="80" height="80" as="geometry" />
        </mxCell>
        <mxCell id="9WD0qOLTzXB-JECReqoN-166" style="edgeStyle=orthogonalEdgeStyle;rounded=0;orthogonalLoop=1;jettySize=auto;html=1;entryX=0.5;entryY=0;entryDx=0;entryDy=0;" edge="1" parent="1" source="9WD0qOLTzXB-JECReqoN-158" target="9WD0qOLTzXB-JECReqoN-164">
          <mxGeometry relative="1" as="geometry" />
        </mxCell>
        <mxCell id="9WD0qOLTzXB-JECReqoN-170" style="edgeStyle=orthogonalEdgeStyle;rounded=0;orthogonalLoop=1;jettySize=auto;html=1;exitX=0.5;exitY=1;exitDx=0;exitDy=0;entryX=0;entryY=0.75;entryDx=0;entryDy=0;" edge="1" parent="1" source="9WD0qOLTzXB-JECReqoN-158" target="9WD0qOLTzXB-JECReqoN-168">
          <mxGeometry relative="1" as="geometry" />
        </mxCell>
        <mxCell id="9WD0qOLTzXB-JECReqoN-184" style="edgeStyle=orthogonalEdgeStyle;rounded=0;orthogonalLoop=1;jettySize=auto;html=1;exitX=1;exitY=0.75;exitDx=0;exitDy=0;entryX=0;entryY=0;entryDx=0;entryDy=0;" edge="1" parent="1" source="9WD0qOLTzXB-JECReqoN-158" target="9WD0qOLTzXB-JECReqoN-183">
          <mxGeometry relative="1" as="geometry">
            <Array as="points">
              <mxPoint x="1170" y="2140" />
              <mxPoint x="1320" y="2140" />
              <mxPoint x="1320" y="2208" />
            </Array>
          </mxGeometry>
        </mxCell>
        <mxCell id="9WD0qOLTzXB-JECReqoN-158" value="Mostrar opciones normales" style="whiteSpace=wrap;html=1;rounded=0;" vertex="1" parent="1">
          <mxGeometry x="1063.14" y="2080" width="106.86" height="40" as="geometry" />
        </mxCell>
        <mxCell id="9WD0qOLTzXB-JECReqoN-167" style="edgeStyle=orthogonalEdgeStyle;rounded=0;orthogonalLoop=1;jettySize=auto;html=1;entryX=1;entryY=0.5;entryDx=0;entryDy=0;" edge="1" parent="1" source="9WD0qOLTzXB-JECReqoN-160" target="9WD0qOLTzXB-JECReqoN-164">
          <mxGeometry relative="1" as="geometry" />
        </mxCell>
        <mxCell id="9WD0qOLTzXB-JECReqoN-171" style="edgeStyle=orthogonalEdgeStyle;rounded=0;orthogonalLoop=1;jettySize=auto;html=1;exitX=0;exitY=1;exitDx=0;exitDy=0;entryX=0.75;entryY=0;entryDx=0;entryDy=0;" edge="1" parent="1" source="9WD0qOLTzXB-JECReqoN-160" target="9WD0qOLTzXB-JECReqoN-168">
          <mxGeometry relative="1" as="geometry" />
        </mxCell>
        <mxCell id="9WD0qOLTzXB-JECReqoN-190" style="edgeStyle=orthogonalEdgeStyle;rounded=0;orthogonalLoop=1;jettySize=auto;html=1;exitX=1;exitY=1;exitDx=0;exitDy=0;" edge="1" parent="1" source="9WD0qOLTzXB-JECReqoN-160" target="9WD0qOLTzXB-JECReqoN-191">
          <mxGeometry relative="1" as="geometry">
            <mxPoint x="1500" y="2150" as="targetPoint" />
          </mxGeometry>
        </mxCell>
        <mxCell id="9WD0qOLTzXB-JECReqoN-192" style="edgeStyle=orthogonalEdgeStyle;rounded=0;orthogonalLoop=1;jettySize=auto;html=1;exitX=1;exitY=0.75;exitDx=0;exitDy=0;" edge="1" parent="1" source="9WD0qOLTzXB-JECReqoN-160" target="9WD0qOLTzXB-JECReqoN-193">
          <mxGeometry relative="1" as="geometry">
            <mxPoint x="1589.9999999999995" y="2180" as="targetPoint" />
          </mxGeometry>
        </mxCell>
        <mxCell id="9WD0qOLTzXB-JECReqoN-160" value="Mostrar opciones especiales + normales" style="whiteSpace=wrap;html=1;rounded=0;" vertex="1" parent="1">
          <mxGeometry x="1309.99" y="2080" width="100.01" height="40" as="geometry" />
        </mxCell>
        <mxCell id="9WD0qOLTzXB-JECReqoN-164" value="Ver todos los comentarios" style="rounded=0;whiteSpace=wrap;html=1;" vertex="1" parent="1">
          <mxGeometry x="970" y="2170" width="80" height="30" as="geometry" />
        </mxCell>
        <mxCell id="9WD0qOLTzXB-JECReqoN-173" value="" style="edgeStyle=orthogonalEdgeStyle;rounded=0;orthogonalLoop=1;jettySize=auto;html=1;" edge="1" parent="1" source="9WD0qOLTzXB-JECReqoN-168" target="9WD0qOLTzXB-JECReqoN-172">
          <mxGeometry relative="1" as="geometry" />
        </mxCell>
        <mxCell id="9WD0qOLTzXB-JECReqoN-168" value="Comentar" style="rounded=0;whiteSpace=wrap;html=1;" vertex="1" parent="1">
          <mxGeometry x="1195" y="2182.5" width="70.01" height="25" as="geometry" />
        </mxCell>
        <mxCell id="9WD0qOLTzXB-JECReqoN-175" value="" style="edgeStyle=orthogonalEdgeStyle;rounded=0;orthogonalLoop=1;jettySize=auto;html=1;" edge="1" parent="1" source="9WD0qOLTzXB-JECReqoN-172" target="9WD0qOLTzXB-JECReqoN-174">
          <mxGeometry relative="1" as="geometry" />
        </mxCell>
        <mxCell id="9WD0qOLTzXB-JECReqoN-172" value="Pide comentario" style="whiteSpace=wrap;html=1;rounded=0;" vertex="1" parent="1">
          <mxGeometry x="1185" y="2270" width="89.99" height="20" as="geometry" />
        </mxCell>
        <mxCell id="9WD0qOLTzXB-JECReqoN-177" value="" style="edgeStyle=orthogonalEdgeStyle;rounded=0;orthogonalLoop=1;jettySize=auto;html=1;" edge="1" parent="1" source="9WD0qOLTzXB-JECReqoN-174" target="9WD0qOLTzXB-JECReqoN-176">
          <mxGeometry relative="1" as="geometry" />
        </mxCell>
        <mxCell id="9WD0qOLTzXB-JECReqoN-180" value="" style="edgeStyle=orthogonalEdgeStyle;rounded=0;orthogonalLoop=1;jettySize=auto;html=1;" edge="1" parent="1" source="9WD0qOLTzXB-JECReqoN-174" target="9WD0qOLTzXB-JECReqoN-179">
          <mxGeometry relative="1" as="geometry" />
        </mxCell>
        <mxCell id="9WD0qOLTzXB-JECReqoN-174" value="Contiene palabra vetada" style="rhombus;whiteSpace=wrap;html=1;rounded=0;" vertex="1" parent="1">
          <mxGeometry x="1162.5" y="2338" width="135.01" height="60" as="geometry" />
        </mxCell>
        <mxCell id="9WD0qOLTzXB-JECReqoN-178" style="edgeStyle=orthogonalEdgeStyle;rounded=0;orthogonalLoop=1;jettySize=auto;html=1;" edge="1" parent="1" source="9WD0qOLTzXB-JECReqoN-176">
          <mxGeometry relative="1" as="geometry">
            <mxPoint x="1130" y="1900" as="targetPoint" />
            <Array as="points">
              <mxPoint x="890" y="2460" />
              <mxPoint x="890" y="1900" />
            </Array>
          </mxGeometry>
        </mxCell>
        <mxCell id="9WD0qOLTzXB-JECReqoN-176" value="Añadir comentario" style="whiteSpace=wrap;html=1;rounded=0;" vertex="1" parent="1">
          <mxGeometry x="989.995" y="2430" width="120" height="60" as="geometry" />
        </mxCell>
        <mxCell id="9WD0qOLTzXB-JECReqoN-182" value="" style="edgeStyle=orthogonalEdgeStyle;rounded=0;orthogonalLoop=1;jettySize=auto;html=1;" edge="1" parent="1" source="9WD0qOLTzXB-JECReqoN-179" target="9WD0qOLTzXB-JECReqoN-181">
          <mxGeometry relative="1" as="geometry" />
        </mxCell>
        <mxCell id="9WD0qOLTzXB-JECReqoN-179" value="Mostrar &quot;Contiene palabra vetada&quot;" style="whiteSpace=wrap;html=1;rounded=0;" vertex="1" parent="1">
          <mxGeometry x="1370.01" y="2420" width="100" height="40" as="geometry" />
        </mxCell>
        <mxCell id="9WD0qOLTzXB-JECReqoN-181" value="Añadir al array de comentarios borrados" style="whiteSpace=wrap;html=1;rounded=0;" vertex="1" parent="1">
          <mxGeometry x="1360.01" y="2530" width="119.99" height="30" as="geometry" />
        </mxCell>
        <mxCell id="9WD0qOLTzXB-JECReqoN-188" value="" style="edgeStyle=orthogonalEdgeStyle;rounded=0;orthogonalLoop=1;jettySize=auto;html=1;" edge="1" parent="1" source="9WD0qOLTzXB-JECReqoN-183" target="9WD0qOLTzXB-JECReqoN-187">
          <mxGeometry relative="1" as="geometry" />
        </mxCell>
        <mxCell id="9WD0qOLTzXB-JECReqoN-183" value="Salir" style="rounded=0;whiteSpace=wrap;html=1;" vertex="1" parent="1">
          <mxGeometry x="1340" y="2207.5" width="70" height="15" as="geometry" />
        </mxCell>
        <mxCell id="9WD0qOLTzXB-JECReqoN-187" value="Volver a menú principal" style="whiteSpace=wrap;html=1;rounded=0;" vertex="1" parent="1">
          <mxGeometry x="1332.5" y="2260" width="85" height="30" as="geometry" />
        </mxCell>
        <mxCell id="9WD0qOLTzXB-JECReqoN-191" value="Ver comentarios borrados" style="rounded=0;whiteSpace=wrap;html=1;" vertex="1" parent="1">
          <mxGeometry x="1440" y="2160" width="100" height="30" as="geometry" />
        </mxCell>
        <mxCell id="9WD0qOLTzXB-JECReqoN-195" value="" style="edgeStyle=orthogonalEdgeStyle;rounded=0;orthogonalLoop=1;jettySize=auto;html=1;" edge="1" parent="1" source="9WD0qOLTzXB-JECReqoN-193" target="9WD0qOLTzXB-JECReqoN-194">
          <mxGeometry relative="1" as="geometry" />
        </mxCell>
        <mxCell id="9WD0qOLTzXB-JECReqoN-193" value="Autoriar comentarios" style="rounded=0;whiteSpace=wrap;html=1;" vertex="1" parent="1">
          <mxGeometry x="1560" y="2160" width="100" height="25" as="geometry" />
        </mxCell>
        <mxCell id="9WD0qOLTzXB-JECReqoN-197" value="" style="edgeStyle=orthogonalEdgeStyle;rounded=0;orthogonalLoop=1;jettySize=auto;html=1;" edge="1" parent="1" source="9WD0qOLTzXB-JECReqoN-194" target="9WD0qOLTzXB-JECReqoN-196">
          <mxGeometry relative="1" as="geometry" />
        </mxCell>
        <mxCell id="9WD0qOLTzXB-JECReqoN-194" value="Elegir comentario" style="whiteSpace=wrap;html=1;rounded=0;" vertex="1" parent="1">
          <mxGeometry x="1560" y="2252.5" width="100" height="17.5" as="geometry" />
        </mxCell>
        <mxCell id="9WD0qOLTzXB-JECReqoN-199" value="" style="edgeStyle=orthogonalEdgeStyle;rounded=0;orthogonalLoop=1;jettySize=auto;html=1;" edge="1" parent="1" source="9WD0qOLTzXB-JECReqoN-196" target="9WD0qOLTzXB-JECReqoN-198">
          <mxGeometry relative="1" as="geometry" />
        </mxCell>
        <mxCell id="9WD0qOLTzXB-JECReqoN-196" value="Elegir película" style="whiteSpace=wrap;html=1;rounded=0;" vertex="1" parent="1">
          <mxGeometry x="1560" y="2290" width="100" height="20" as="geometry" />
        </mxCell>
        <mxCell id="9WD0qOLTzXB-JECReqoN-198" value="Añadir al array de comentarios" style="whiteSpace=wrap;html=1;rounded=0;" vertex="1" parent="1">
          <mxGeometry x="1560" y="2330" width="100" height="30" as="geometry" />
        </mxCell>
        <mxCell id="9WD0qOLTzXB-JECReqoN-202" value="Buscar Película" style="rounded=0;whiteSpace=wrap;html=1;" vertex="1" parent="1">
          <mxGeometry x="1470.01" y="1390" width="100" height="20" as="geometry" />
        </mxCell>
        <mxCell id="9WD0qOLTzXB-JECReqoN-208" style="edgeStyle=orthogonalEdgeStyle;rounded=0;orthogonalLoop=1;jettySize=auto;html=1;entryX=0;entryY=0.5;entryDx=0;entryDy=0;" edge="1" parent="1" source="9WD0qOLTzXB-JECReqoN-203" target="9WD0qOLTzXB-JECReqoN-202">
          <mxGeometry relative="1" as="geometry" />
        </mxCell>
        <mxCell id="9WD0qOLTzXB-JECReqoN-213" value="" style="edgeStyle=orthogonalEdgeStyle;rounded=0;orthogonalLoop=1;jettySize=auto;html=1;" edge="1" parent="1" source="9WD0qOLTzXB-JECReqoN-203" target="9WD0qOLTzXB-JECReqoN-212">
          <mxGeometry relative="1" as="geometry" />
        </mxCell>
        <mxCell id="9WD0qOLTzXB-JECReqoN-203" value="Buscar por nombre" style="rounded=0;whiteSpace=wrap;html=1;" vertex="1" parent="1">
          <mxGeometry x="1309.99" y="1453.75" width="112.49" height="17.5" as="geometry" />
        </mxCell>
        <mxCell id="9WD0qOLTzXB-JECReqoN-209" style="edgeStyle=orthogonalEdgeStyle;rounded=0;orthogonalLoop=1;jettySize=auto;html=1;exitX=0.5;exitY=0;exitDx=0;exitDy=0;entryX=0.15;entryY=1.068;entryDx=0;entryDy=0;entryPerimeter=0;" edge="1" parent="1" source="9WD0qOLTzXB-JECReqoN-204" target="9WD0qOLTzXB-JECReqoN-202">
          <mxGeometry relative="1" as="geometry" />
        </mxCell>
        <mxCell id="9WD0qOLTzXB-JECReqoN-215" value="" style="edgeStyle=orthogonalEdgeStyle;rounded=0;orthogonalLoop=1;jettySize=auto;html=1;" edge="1" parent="1" source="9WD0qOLTzXB-JECReqoN-204" target="9WD0qOLTzXB-JECReqoN-214">
          <mxGeometry relative="1" as="geometry" />
        </mxCell>
        <mxCell id="9WD0qOLTzXB-JECReqoN-204" value="Buscar por valoración" style="rounded=0;whiteSpace=wrap;html=1;" vertex="1" parent="1">
          <mxGeometry x="1450.01" y="1453.75" width="129.99" height="17.5" as="geometry" />
        </mxCell>
        <mxCell id="9WD0qOLTzXB-JECReqoN-210" style="edgeStyle=orthogonalEdgeStyle;rounded=0;orthogonalLoop=1;jettySize=auto;html=1;exitX=0.5;exitY=0;exitDx=0;exitDy=0;entryX=0.75;entryY=1;entryDx=0;entryDy=0;" edge="1" parent="1" source="9WD0qOLTzXB-JECReqoN-205" target="9WD0qOLTzXB-JECReqoN-202">
          <mxGeometry relative="1" as="geometry" />
        </mxCell>
        <mxCell id="9WD0qOLTzXB-JECReqoN-217" value="" style="edgeStyle=orthogonalEdgeStyle;rounded=0;orthogonalLoop=1;jettySize=auto;html=1;" edge="1" parent="1" source="9WD0qOLTzXB-JECReqoN-205" target="9WD0qOLTzXB-JECReqoN-216">
          <mxGeometry relative="1" as="geometry" />
        </mxCell>
        <mxCell id="9WD0qOLTzXB-JECReqoN-205" value="Buscar por autor" style="rounded=0;whiteSpace=wrap;html=1;" vertex="1" parent="1">
          <mxGeometry x="1600" y="1456.25" width="110" height="13.75" as="geometry" />
        </mxCell>
        <mxCell id="9WD0qOLTzXB-JECReqoN-211" style="edgeStyle=orthogonalEdgeStyle;rounded=0;orthogonalLoop=1;jettySize=auto;html=1;exitX=0.5;exitY=0;exitDx=0;exitDy=0;entryX=1;entryY=0.25;entryDx=0;entryDy=0;" edge="1" parent="1" source="9WD0qOLTzXB-JECReqoN-206" target="9WD0qOLTzXB-JECReqoN-202">
          <mxGeometry relative="1" as="geometry" />
        </mxCell>
        <mxCell id="9WD0qOLTzXB-JECReqoN-219" value="" style="edgeStyle=orthogonalEdgeStyle;rounded=0;orthogonalLoop=1;jettySize=auto;html=1;" edge="1" parent="1" source="9WD0qOLTzXB-JECReqoN-206" target="9WD0qOLTzXB-JECReqoN-218">
          <mxGeometry relative="1" as="geometry" />
        </mxCell>
        <mxCell id="9WD0qOLTzXB-JECReqoN-206" value="Buscar por género" style="rounded=0;whiteSpace=wrap;html=1;" vertex="1" parent="1">
          <mxGeometry x="1730" y="1458.75" width="120" height="12.5" as="geometry" />
        </mxCell>
        <mxCell id="9WD0qOLTzXB-JECReqoN-222" style="edgeStyle=orthogonalEdgeStyle;rounded=0;orthogonalLoop=1;jettySize=auto;html=1;exitX=0.5;exitY=1;exitDx=0;exitDy=0;entryX=0;entryY=0;entryDx=0;entryDy=0;" edge="1" parent="1" source="9WD0qOLTzXB-JECReqoN-212" target="9WD0qOLTzXB-JECReqoN-221">
          <mxGeometry relative="1" as="geometry" />
        </mxCell>
        <mxCell id="9WD0qOLTzXB-JECReqoN-212" value="Introducir nombre" style="whiteSpace=wrap;html=1;rounded=0;" vertex="1" parent="1">
          <mxGeometry x="1319.35" y="1528.44" width="100.65" height="20" as="geometry" />
        </mxCell>
        <mxCell id="9WD0qOLTzXB-JECReqoN-223" style="edgeStyle=orthogonalEdgeStyle;rounded=0;orthogonalLoop=1;jettySize=auto;html=1;exitX=0.5;exitY=1;exitDx=0;exitDy=0;entryX=0.5;entryY=0;entryDx=0;entryDy=0;" edge="1" parent="1" source="9WD0qOLTzXB-JECReqoN-214" target="9WD0qOLTzXB-JECReqoN-221">
          <mxGeometry relative="1" as="geometry" />
        </mxCell>
        <mxCell id="9WD0qOLTzXB-JECReqoN-214" value="Introducir Valoración" style="whiteSpace=wrap;html=1;rounded=0;" vertex="1" parent="1">
          <mxGeometry x="1457.51" y="1530" width="114.99" height="20" as="geometry" />
        </mxCell>
        <mxCell id="9WD0qOLTzXB-JECReqoN-224" style="edgeStyle=orthogonalEdgeStyle;rounded=0;orthogonalLoop=1;jettySize=auto;html=1;exitX=0.5;exitY=1;exitDx=0;exitDy=0;entryX=1;entryY=0;entryDx=0;entryDy=0;" edge="1" parent="1" source="9WD0qOLTzXB-JECReqoN-216" target="9WD0qOLTzXB-JECReqoN-221">
          <mxGeometry relative="1" as="geometry" />
        </mxCell>
        <mxCell id="9WD0qOLTzXB-JECReqoN-216" value="Introducir Autor" style="whiteSpace=wrap;html=1;rounded=0;" vertex="1" parent="1">
          <mxGeometry x="1612.5" y="1526.8700000000001" width="85" height="23.13" as="geometry" />
        </mxCell>
        <mxCell id="9WD0qOLTzXB-JECReqoN-225" style="edgeStyle=orthogonalEdgeStyle;rounded=0;orthogonalLoop=1;jettySize=auto;html=1;exitX=0.5;exitY=1;exitDx=0;exitDy=0;" edge="1" parent="1" source="9WD0qOLTzXB-JECReqoN-218">
          <mxGeometry relative="1" as="geometry">
            <mxPoint x="1609.9999999999995" y="1679.9999999999995" as="targetPoint" />
          </mxGeometry>
        </mxCell>
        <mxCell id="9WD0qOLTzXB-JECReqoN-218" value="Introducir Género" style="whiteSpace=wrap;html=1;rounded=0;" vertex="1" parent="1">
          <mxGeometry x="1740" y="1522.5" width="100" height="22.5" as="geometry" />
        </mxCell>
        <mxCell id="9WD0qOLTzXB-JECReqoN-220" style="edgeStyle=orthogonalEdgeStyle;rounded=0;orthogonalLoop=1;jettySize=auto;html=1;exitX=0.5;exitY=1;exitDx=0;exitDy=0;" edge="1" parent="1" source="9WD0qOLTzXB-JECReqoN-216" target="9WD0qOLTzXB-JECReqoN-216">
          <mxGeometry relative="1" as="geometry" />
        </mxCell>
        <mxCell id="9WD0qOLTzXB-JECReqoN-226" style="edgeStyle=orthogonalEdgeStyle;rounded=0;orthogonalLoop=1;jettySize=auto;html=1;exitX=0;exitY=0.5;exitDx=0;exitDy=0;" edge="1" parent="1" source="9WD0qOLTzXB-JECReqoN-221" target="9WD0qOLTzXB-JECReqoN-227">
          <mxGeometry relative="1" as="geometry">
            <mxPoint x="1499.9999999999995" y="1759.9999999999995" as="targetPoint" />
          </mxGeometry>
        </mxCell>
        <mxCell id="9WD0qOLTzXB-JECReqoN-230" value="" style="edgeStyle=orthogonalEdgeStyle;rounded=0;orthogonalLoop=1;jettySize=auto;html=1;" edge="1" parent="1" source="9WD0qOLTzXB-JECReqoN-221" target="9WD0qOLTzXB-JECReqoN-229">
          <mxGeometry relative="1" as="geometry" />
        </mxCell>
        <mxCell id="9WD0qOLTzXB-JECReqoN-221" value="Se encuentra" style="rhombus;whiteSpace=wrap;html=1;" vertex="1" parent="1">
          <mxGeometry x="1540" y="1660" width="80" height="80" as="geometry" />
        </mxCell>
        <mxCell id="9WD0qOLTzXB-JECReqoN-227" value="Mostrar &quot;No se han encontrado películas&quot;" style="rounded=0;whiteSpace=wrap;html=1;" vertex="1" parent="1">
          <mxGeometry x="1450.01" y="1792.5" width="120" height="37.5" as="geometry" />
        </mxCell>
        <mxCell id="9WD0qOLTzXB-JECReqoN-233" style="edgeStyle=orthogonalEdgeStyle;rounded=0;orthogonalLoop=1;jettySize=auto;html=1;" edge="1" parent="1" source="9WD0qOLTzXB-JECReqoN-229">
          <mxGeometry relative="1" as="geometry">
            <mxPoint x="1730" y="1860" as="targetPoint" />
          </mxGeometry>
        </mxCell>
        <mxCell id="9WD0qOLTzXB-JECReqoN-229" value="Elegir id película" style="whiteSpace=wrap;html=1;" vertex="1" parent="1">
          <mxGeometry x="1670" y="1801.25" width="120" height="20" as="geometry" />
        </mxCell>
        <mxCell id="9WD0qOLTzXB-JECReqoN-234" value="Imprimir ficha" style="rounded=0;whiteSpace=wrap;html=1;" vertex="1" parent="1">
          <mxGeometry x="1670" y="1860" width="120" height="60" as="geometry" />
        </mxCell>
        <mxCell id="9WD0qOLTzXB-JECReqoN-237" value="Salir" style="rounded=0;whiteSpace=wrap;html=1;" vertex="1" parent="1">
          <mxGeometry x="1210" y="1403.75" width="40" height="16.25" as="geometry" />
        </mxCell>
        <mxCell id="9WD0qOLTzXB-JECReqoN-240" value="Cambios Ficha Película" style="rounded=0;whiteSpace=wrap;html=1;" vertex="1" parent="1">
          <mxGeometry x="1890" y="1350" width="90" height="30" as="geometry" />
        </mxCell>
        <mxCell id="9WD0qOLTzXB-JECReqoN-242" value="Eliminar Película" style="rounded=0;whiteSpace=wrap;html=1;" vertex="1" parent="1">
          <mxGeometry x="1800" y="1350" width="60" height="30" as="geometry" />
        </mxCell>
        <mxCell id="9WD0qOLTzXB-JECReqoN-247" value="" style="edgeStyle=orthogonalEdgeStyle;rounded=0;orthogonalLoop=1;jettySize=auto;html=1;" edge="1" parent="1" source="9WD0qOLTzXB-JECReqoN-243" target="9WD0qOLTzXB-JECReqoN-246">
          <mxGeometry relative="1" as="geometry" />
        </mxCell>
        <mxCell id="9WD0qOLTzXB-JECReqoN-243" value="Modificar cuenta" style="rounded=0;whiteSpace=wrap;html=1;" vertex="1" parent="1">
          <mxGeometry x="2290" y="987.5" width="120" height="60" as="geometry" />
        </mxCell>
        <mxCell id="9WD0qOLTzXB-JECReqoN-249" value="" style="edgeStyle=orthogonalEdgeStyle;rounded=0;orthogonalLoop=1;jettySize=auto;html=1;" edge="1" parent="1" source="9WD0qOLTzXB-JECReqoN-246" target="9WD0qOLTzXB-JECReqoN-248">
          <mxGeometry relative="1" as="geometry" />
        </mxCell>
        <mxCell id="9WD0qOLTzXB-JECReqoN-261" value="" style="edgeStyle=orthogonalEdgeStyle;rounded=0;orthogonalLoop=1;jettySize=auto;html=1;" edge="1" parent="1" source="9WD0qOLTzXB-JECReqoN-246" target="9WD0qOLTzXB-JECReqoN-260">
          <mxGeometry relative="1" as="geometry" />
        </mxCell>
        <mxCell id="9WD0qOLTzXB-JECReqoN-246" value="Es Admin" style="rhombus;whiteSpace=wrap;html=1;rounded=0;" vertex="1" parent="1">
          <mxGeometry x="2300" y="1140" width="80" height="80" as="geometry" />
        </mxCell>
        <mxCell id="9WD0qOLTzXB-JECReqoN-255" value="" style="edgeStyle=orthogonalEdgeStyle;rounded=0;orthogonalLoop=1;jettySize=auto;html=1;" edge="1" parent="1" source="9WD0qOLTzXB-JECReqoN-248" target="9WD0qOLTzXB-JECReqoN-254">
          <mxGeometry relative="1" as="geometry" />
        </mxCell>
        <mxCell id="9WD0qOLTzXB-JECReqoN-248" value="Menú modificar cuenta" style="whiteSpace=wrap;html=1;rounded=0;" vertex="1" parent="1">
          <mxGeometry x="2160" y="1245.98" width="90" height="34.02" as="geometry" />
        </mxCell>
        <mxCell id="9WD0qOLTzXB-JECReqoN-251" style="edgeStyle=orthogonalEdgeStyle;rounded=0;orthogonalLoop=1;jettySize=auto;html=1;entryX=0;entryY=0.5;entryDx=0;entryDy=0;" edge="1" parent="1" source="9WD0qOLTzXB-JECReqoN-250" target="9WD0qOLTzXB-JECReqoN-248">
          <mxGeometry relative="1" as="geometry" />
        </mxCell>
        <mxCell id="9WD0qOLTzXB-JECReqoN-253" value="" style="edgeStyle=orthogonalEdgeStyle;rounded=0;orthogonalLoop=1;jettySize=auto;html=1;" edge="1" parent="1" source="9WD0qOLTzXB-JECReqoN-250" target="9WD0qOLTzXB-JECReqoN-252">
          <mxGeometry relative="1" as="geometry" />
        </mxCell>
        <mxCell id="9WD0qOLTzXB-JECReqoN-250" value="Cambiar nombre" style="rounded=0;whiteSpace=wrap;html=1;" vertex="1" parent="1">
          <mxGeometry x="2090" y="1360" width="70" height="30" as="geometry" />
        </mxCell>
        <mxCell id="9WD0qOLTzXB-JECReqoN-252" value="Pedir nombre" style="whiteSpace=wrap;html=1;rounded=0;" vertex="1" parent="1">
          <mxGeometry x="2092.5" y="1420" width="65" height="25" as="geometry" />
        </mxCell>
        <mxCell id="9WD0qOLTzXB-JECReqoN-257" value="" style="edgeStyle=orthogonalEdgeStyle;rounded=0;orthogonalLoop=1;jettySize=auto;html=1;" edge="1" parent="1" source="9WD0qOLTzXB-JECReqoN-254" target="9WD0qOLTzXB-JECReqoN-256">
          <mxGeometry relative="1" as="geometry" />
        </mxCell>
        <mxCell id="9WD0qOLTzXB-JECReqoN-254" value="Cambiar Contraseña" style="whiteSpace=wrap;html=1;rounded=0;" vertex="1" parent="1">
          <mxGeometry x="2260" y="1360" width="80" height="30" as="geometry" />
        </mxCell>
        <mxCell id="9WD0qOLTzXB-JECReqoN-259" value="" style="edgeStyle=orthogonalEdgeStyle;rounded=0;orthogonalLoop=1;jettySize=auto;html=1;" edge="1" parent="1" source="9WD0qOLTzXB-JECReqoN-256" target="9WD0qOLTzXB-JECReqoN-258">
          <mxGeometry relative="1" as="geometry" />
        </mxCell>
        <mxCell id="9WD0qOLTzXB-JECReqoN-256" value="Pedir Contraseña actual" style="whiteSpace=wrap;html=1;rounded=0;" vertex="1" parent="1">
          <mxGeometry x="2265" y="1421.25" width="70" height="48.75" as="geometry" />
        </mxCell>
        <mxCell id="9WD0qOLTzXB-JECReqoN-258" value="Pedir nueva contraseña&amp;nbsp;" style="whiteSpace=wrap;html=1;rounded=0;" vertex="1" parent="1">
          <mxGeometry x="2265" y="1500.93" width="70" height="35.63" as="geometry" />
        </mxCell>
        <mxCell id="9WD0qOLTzXB-JECReqoN-260" value="Menú modificar cuentas" style="whiteSpace=wrap;html=1;rounded=0;" vertex="1" parent="1">
          <mxGeometry x="2540" y="1246.47" width="90" height="29.02" as="geometry" />
        </mxCell>
        <mxCell id="9WD0qOLTzXB-JECReqoN-264" value="" style="edgeStyle=orthogonalEdgeStyle;rounded=0;orthogonalLoop=1;jettySize=auto;html=1;" edge="1" parent="1" source="9WD0qOLTzXB-JECReqoN-262" target="9WD0qOLTzXB-JECReqoN-263">
          <mxGeometry relative="1" as="geometry" />
        </mxCell>
        <mxCell id="9WD0qOLTzXB-JECReqoN-278" style="edgeStyle=orthogonalEdgeStyle;rounded=0;orthogonalLoop=1;jettySize=auto;html=1;exitX=0.5;exitY=0;exitDx=0;exitDy=0;entryX=0;entryY=0.5;entryDx=0;entryDy=0;" edge="1" parent="1" source="9WD0qOLTzXB-JECReqoN-262" target="9WD0qOLTzXB-JECReqoN-260">
          <mxGeometry relative="1" as="geometry" />
        </mxCell>
        <mxCell id="9WD0qOLTzXB-JECReqoN-262" value="Eliminar cuenta" style="rounded=0;whiteSpace=wrap;html=1;" vertex="1" parent="1">
          <mxGeometry x="2430" y="1320" width="70" height="30" as="geometry" />
        </mxCell>
        <mxCell id="9WD0qOLTzXB-JECReqoN-266" value="" style="edgeStyle=orthogonalEdgeStyle;rounded=0;orthogonalLoop=1;jettySize=auto;html=1;" edge="1" parent="1" source="9WD0qOLTzXB-JECReqoN-263" target="9WD0qOLTzXB-JECReqoN-265">
          <mxGeometry relative="1" as="geometry" />
        </mxCell>
        <mxCell id="9WD0qOLTzXB-JECReqoN-263" value="Elegir cuenta para eliminar" style="whiteSpace=wrap;html=1;rounded=0;" vertex="1" parent="1">
          <mxGeometry x="2417.5" y="1403.75" width="95" height="26.25" as="geometry" />
        </mxCell>
        <mxCell id="9WD0qOLTzXB-JECReqoN-265" value="Eliminar Cuenta" style="whiteSpace=wrap;html=1;rounded=0;" vertex="1" parent="1">
          <mxGeometry x="2417.5" y="1493.13" width="95" height="16.88" as="geometry" />
        </mxCell>
        <mxCell id="9WD0qOLTzXB-JECReqoN-267" value="" style="edgeStyle=orthogonalEdgeStyle;rounded=0;orthogonalLoop=1;jettySize=auto;html=1;" edge="1" source="9WD0qOLTzXB-JECReqoN-268" target="9WD0qOLTzXB-JECReqoN-270" parent="1">
          <mxGeometry relative="1" as="geometry" />
        </mxCell>
        <mxCell id="9WD0qOLTzXB-JECReqoN-279" style="edgeStyle=orthogonalEdgeStyle;rounded=0;orthogonalLoop=1;jettySize=auto;html=1;exitX=0.5;exitY=0;exitDx=0;exitDy=0;entryX=0.5;entryY=1;entryDx=0;entryDy=0;" edge="1" parent="1" source="9WD0qOLTzXB-JECReqoN-268" target="9WD0qOLTzXB-JECReqoN-260">
          <mxGeometry relative="1" as="geometry" />
        </mxCell>
        <mxCell id="9WD0qOLTzXB-JECReqoN-268" value="Cambiar contraseña" style="rounded=0;whiteSpace=wrap;html=1;" vertex="1" parent="1">
          <mxGeometry x="2550" y="1310" width="70" height="30" as="geometry" />
        </mxCell>
        <mxCell id="9WD0qOLTzXB-JECReqoN-269" value="" style="edgeStyle=orthogonalEdgeStyle;rounded=0;orthogonalLoop=1;jettySize=auto;html=1;" edge="1" source="9WD0qOLTzXB-JECReqoN-270" target="9WD0qOLTzXB-JECReqoN-271" parent="1">
          <mxGeometry relative="1" as="geometry" />
        </mxCell>
        <mxCell id="9WD0qOLTzXB-JECReqoN-270" value="Elegir cuenta para cambiar" style="whiteSpace=wrap;html=1;rounded=0;" vertex="1" parent="1">
          <mxGeometry x="2537.5" y="1398.75" width="95" height="26.25" as="geometry" />
        </mxCell>
        <mxCell id="9WD0qOLTzXB-JECReqoN-271" value="Cambiar Contraseña" style="whiteSpace=wrap;html=1;rounded=0;" vertex="1" parent="1">
          <mxGeometry x="2525" y="1492.5" width="120" height="16.87" as="geometry" />
        </mxCell>
        <mxCell id="9WD0qOLTzXB-JECReqoN-272" value="" style="edgeStyle=orthogonalEdgeStyle;rounded=0;orthogonalLoop=1;jettySize=auto;html=1;" edge="1" source="9WD0qOLTzXB-JECReqoN-273" target="9WD0qOLTzXB-JECReqoN-275" parent="1">
          <mxGeometry relative="1" as="geometry" />
        </mxCell>
        <mxCell id="9WD0qOLTzXB-JECReqoN-280" style="edgeStyle=orthogonalEdgeStyle;rounded=0;orthogonalLoop=1;jettySize=auto;html=1;exitX=0.5;exitY=0;exitDx=0;exitDy=0;entryX=1;entryY=0.5;entryDx=0;entryDy=0;" edge="1" parent="1" source="9WD0qOLTzXB-JECReqoN-273" target="9WD0qOLTzXB-JECReqoN-260">
          <mxGeometry relative="1" as="geometry" />
        </mxCell>
        <mxCell id="9WD0qOLTzXB-JECReqoN-273" value="Cambiar nombre" style="rounded=0;whiteSpace=wrap;html=1;" vertex="1" parent="1">
          <mxGeometry x="2715" y="1320" width="70" height="30" as="geometry" />
        </mxCell>
        <mxCell id="9WD0qOLTzXB-JECReqoN-274" value="" style="edgeStyle=orthogonalEdgeStyle;rounded=0;orthogonalLoop=1;jettySize=auto;html=1;" edge="1" source="9WD0qOLTzXB-JECReqoN-275" target="9WD0qOLTzXB-JECReqoN-276" parent="1">
          <mxGeometry relative="1" as="geometry" />
        </mxCell>
        <mxCell id="9WD0qOLTzXB-JECReqoN-275" value="Elegir cuenta para cambiar" style="whiteSpace=wrap;html=1;rounded=0;" vertex="1" parent="1">
          <mxGeometry x="2702.5" y="1403.75" width="95" height="26.25" as="geometry" />
        </mxCell>
        <mxCell id="9WD0qOLTzXB-JECReqoN-276" value="Cambiar Nombre" style="whiteSpace=wrap;html=1;rounded=0;" vertex="1" parent="1">
          <mxGeometry x="2700" y="1492.5" width="100" height="16.88" as="geometry" />
        </mxCell>
        <mxCell id="9WD0qOLTzXB-JECReqoN-277" style="edgeStyle=orthogonalEdgeStyle;rounded=0;orthogonalLoop=1;jettySize=auto;html=1;exitX=0.5;exitY=1;exitDx=0;exitDy=0;" edge="1" parent="1" source="9WD0qOLTzXB-JECReqoN-276" target="9WD0qOLTzXB-JECReqoN-276">
          <mxGeometry relative="1" as="geometry" />
        </mxCell>
        <mxCell id="9WD0qOLTzXB-JECReqoN-281" style="edgeStyle=orthogonalEdgeStyle;rounded=0;orthogonalLoop=1;jettySize=auto;html=1;exitX=0.5;exitY=1;exitDx=0;exitDy=0;" edge="1" parent="1" source="9WD0qOLTzXB-JECReqoN-271" target="9WD0qOLTzXB-JECReqoN-271">
          <mxGeometry relative="1" as="geometry" />
        </mxCell>
        <mxCell id="9WD0qOLTzXB-JECReqoN-285" value="" style="edgeStyle=orthogonalEdgeStyle;rounded=0;orthogonalLoop=1;jettySize=auto;html=1;" edge="1" parent="1" source="9WD0qOLTzXB-JECReqoN-283" target="9WD0qOLTzXB-JECReqoN-284">
          <mxGeometry relative="1" as="geometry" />
        </mxCell>
        <mxCell id="9WD0qOLTzXB-JECReqoN-283" value="Bloquear Desbloquear Usuarios" style="rounded=0;whiteSpace=wrap;html=1;" vertex="1" parent="1">
          <mxGeometry x="2940" y="920" width="140" height="30" as="geometry" />
        </mxCell>
        <mxCell id="9WD0qOLTzXB-JECReqoN-287" value="" style="edgeStyle=orthogonalEdgeStyle;rounded=0;orthogonalLoop=1;jettySize=auto;html=1;" edge="1" parent="1" source="9WD0qOLTzXB-JECReqoN-284" target="9WD0qOLTzXB-JECReqoN-286">
          <mxGeometry relative="1" as="geometry" />
        </mxCell>
        <mxCell id="9WD0qOLTzXB-JECReqoN-289" value="" style="edgeStyle=orthogonalEdgeStyle;rounded=0;orthogonalLoop=1;jettySize=auto;html=1;" edge="1" parent="1" source="9WD0qOLTzXB-JECReqoN-284" target="9WD0qOLTzXB-JECReqoN-288">
          <mxGeometry relative="1" as="geometry" />
        </mxCell>
        <mxCell id="9WD0qOLTzXB-JECReqoN-295" value="" style="edgeStyle=orthogonalEdgeStyle;rounded=0;orthogonalLoop=1;jettySize=auto;html=1;" edge="1" parent="1" source="9WD0qOLTzXB-JECReqoN-284" target="9WD0qOLTzXB-JECReqoN-294">
          <mxGeometry relative="1" as="geometry" />
        </mxCell>
        <mxCell id="9WD0qOLTzXB-JECReqoN-284" value="Submenu usuarios" style="whiteSpace=wrap;html=1;rounded=0;" vertex="1" parent="1">
          <mxGeometry x="2950" y="1000" width="120" height="60" as="geometry" />
        </mxCell>
        <mxCell id="9WD0qOLTzXB-JECReqoN-286" value="Ver usuarios Bloqueados" style="whiteSpace=wrap;html=1;rounded=0;" vertex="1" parent="1">
          <mxGeometry x="2770" y="1089" width="120" height="60" as="geometry" />
        </mxCell>
        <mxCell id="9WD0qOLTzXB-JECReqoN-291" value="" style="edgeStyle=orthogonalEdgeStyle;rounded=0;orthogonalLoop=1;jettySize=auto;html=1;" edge="1" parent="1" source="9WD0qOLTzXB-JECReqoN-288" target="9WD0qOLTzXB-JECReqoN-300">
          <mxGeometry relative="1" as="geometry">
            <mxPoint x="3010" y="1280" as="targetPoint" />
          </mxGeometry>
        </mxCell>
        <mxCell id="9WD0qOLTzXB-JECReqoN-288" value="Bloquear Usuario" style="whiteSpace=wrap;html=1;rounded=0;" vertex="1" parent="1">
          <mxGeometry x="2950" y="1140" width="120" height="60" as="geometry" />
        </mxCell>
        <mxCell id="9WD0qOLTzXB-JECReqoN-297" value="" style="edgeStyle=orthogonalEdgeStyle;rounded=0;orthogonalLoop=1;jettySize=auto;html=1;" edge="1" parent="1" source="9WD0qOLTzXB-JECReqoN-294" target="9WD0qOLTzXB-JECReqoN-296">
          <mxGeometry relative="1" as="geometry" />
        </mxCell>
        <mxCell id="9WD0qOLTzXB-JECReqoN-294" value="Desbloquear usuarios" style="whiteSpace=wrap;html=1;rounded=0;" vertex="1" parent="1">
          <mxGeometry x="3150" y="1067.5" width="120" height="60" as="geometry" />
        </mxCell>
        <mxCell id="9WD0qOLTzXB-JECReqoN-299" value="" style="edgeStyle=orthogonalEdgeStyle;rounded=0;orthogonalLoop=1;jettySize=auto;html=1;" edge="1" parent="1" source="9WD0qOLTzXB-JECReqoN-296" target="9WD0qOLTzXB-JECReqoN-298">
          <mxGeometry relative="1" as="geometry" />
        </mxCell>
        <mxCell id="9WD0qOLTzXB-JECReqoN-296" value="Ver usuarios Bloqueados" style="whiteSpace=wrap;html=1;rounded=0;" vertex="1" parent="1">
          <mxGeometry x="3150" y="1207.5" width="120" height="60" as="geometry" />
        </mxCell>
        <mxCell id="9WD0qOLTzXB-JECReqoN-304" value="" style="edgeStyle=orthogonalEdgeStyle;rounded=0;orthogonalLoop=1;jettySize=auto;html=1;" edge="1" parent="1" source="9WD0qOLTzXB-JECReqoN-298" target="9WD0qOLTzXB-JECReqoN-303">
          <mxGeometry relative="1" as="geometry" />
        </mxCell>
        <mxCell id="9WD0qOLTzXB-JECReqoN-298" value="Elegir usuario" style="whiteSpace=wrap;html=1;rounded=0;" vertex="1" parent="1">
          <mxGeometry x="3150" y="1347.5" width="120" height="60" as="geometry" />
        </mxCell>
        <mxCell id="9WD0qOLTzXB-JECReqoN-302" value="" style="edgeStyle=orthogonalEdgeStyle;rounded=0;orthogonalLoop=1;jettySize=auto;html=1;" edge="1" parent="1" source="9WD0qOLTzXB-JECReqoN-300" target="9WD0qOLTzXB-JECReqoN-301">
          <mxGeometry relative="1" as="geometry" />
        </mxCell>
        <mxCell id="9WD0qOLTzXB-JECReqoN-300" value="Ver usuarios" style="rounded=0;whiteSpace=wrap;html=1;" vertex="1" parent="1">
          <mxGeometry x="2950" y="1250" width="120" height="60" as="geometry" />
        </mxCell>
        <mxCell id="9WD0qOLTzXB-JECReqoN-301" value="Bloquear usuario" style="rounded=0;whiteSpace=wrap;html=1;" vertex="1" parent="1">
          <mxGeometry x="2950" y="1390" width="120" height="60" as="geometry" />
        </mxCell>
        <mxCell id="9WD0qOLTzXB-JECReqoN-303" value="Desbloquar usuario" style="whiteSpace=wrap;html=1;rounded=0;" vertex="1" parent="1">
          <mxGeometry x="3150" y="1487.5" width="120" height="60" as="geometry" />
        </mxCell>
        <mxCell id="9WD0qOLTzXB-JECReqoN-308" value="" style="edgeStyle=orthogonalEdgeStyle;rounded=0;orthogonalLoop=1;jettySize=auto;html=1;" edge="1" parent="1" source="9WD0qOLTzXB-JECReqoN-306" target="9WD0qOLTzXB-JECReqoN-307">
          <mxGeometry relative="1" as="geometry" />
        </mxCell>
        <mxCell id="9WD0qOLTzXB-JECReqoN-306" value="Palabras Vetadas" style="rounded=0;whiteSpace=wrap;html=1;" vertex="1" parent="1">
          <mxGeometry x="3780" y="880" width="120" height="60" as="geometry" />
        </mxCell>
        <mxCell id="9WD0qOLTzXB-JECReqoN-327" style="edgeStyle=orthogonalEdgeStyle;rounded=0;orthogonalLoop=1;jettySize=auto;html=1;exitX=0;exitY=0.5;exitDx=0;exitDy=0;entryX=0.5;entryY=0;entryDx=0;entryDy=0;" edge="1" parent="1" source="9WD0qOLTzXB-JECReqoN-307" target="9WD0qOLTzXB-JECReqoN-309">
          <mxGeometry relative="1" as="geometry" />
        </mxCell>
        <mxCell id="9WD0qOLTzXB-JECReqoN-328" style="edgeStyle=orthogonalEdgeStyle;rounded=0;orthogonalLoop=1;jettySize=auto;html=1;exitX=0.5;exitY=1;exitDx=0;exitDy=0;entryX=0.5;entryY=0;entryDx=0;entryDy=0;" edge="1" parent="1" source="9WD0qOLTzXB-JECReqoN-307" target="9WD0qOLTzXB-JECReqoN-310">
          <mxGeometry relative="1" as="geometry" />
        </mxCell>
        <mxCell id="9WD0qOLTzXB-JECReqoN-330" style="edgeStyle=orthogonalEdgeStyle;rounded=0;orthogonalLoop=1;jettySize=auto;html=1;exitX=1;exitY=0.5;exitDx=0;exitDy=0;entryX=0.5;entryY=0;entryDx=0;entryDy=0;" edge="1" parent="1" source="9WD0qOLTzXB-JECReqoN-307" target="9WD0qOLTzXB-JECReqoN-319">
          <mxGeometry relative="1" as="geometry" />
        </mxCell>
        <mxCell id="9WD0qOLTzXB-JECReqoN-307" value="Submenú Palabras Vetadas" style="rounded=0;whiteSpace=wrap;html=1;" vertex="1" parent="1">
          <mxGeometry x="3780" y="1020" width="120" height="60" as="geometry" />
        </mxCell>
        <mxCell id="9WD0qOLTzXB-JECReqoN-309" value="Ver palabras vetadas" style="rounded=0;whiteSpace=wrap;html=1;" vertex="1" parent="1">
          <mxGeometry x="3510" y="1149" width="120" height="60" as="geometry" />
        </mxCell>
        <mxCell id="9WD0qOLTzXB-JECReqoN-312" value="" style="edgeStyle=orthogonalEdgeStyle;rounded=0;orthogonalLoop=1;jettySize=auto;html=1;" edge="1" parent="1" source="9WD0qOLTzXB-JECReqoN-310" target="9WD0qOLTzXB-JECReqoN-311">
          <mxGeometry relative="1" as="geometry" />
        </mxCell>
        <mxCell id="9WD0qOLTzXB-JECReqoN-310" value="Añadir palabra vetada" style="rounded=0;whiteSpace=wrap;html=1;" vertex="1" parent="1">
          <mxGeometry x="3742" y="1177.5" width="88" height="30" as="geometry" />
        </mxCell>
        <mxCell id="9WD0qOLTzXB-JECReqoN-314" value="" style="edgeStyle=orthogonalEdgeStyle;rounded=0;orthogonalLoop=1;jettySize=auto;html=1;" edge="1" parent="1" source="9WD0qOLTzXB-JECReqoN-311" target="9WD0qOLTzXB-JECReqoN-313">
          <mxGeometry relative="1" as="geometry" />
        </mxCell>
        <mxCell id="9WD0qOLTzXB-JECReqoN-311" value="Escribir palabra" style="whiteSpace=wrap;html=1;rounded=0;" vertex="1" parent="1">
          <mxGeometry x="3742" y="1290" width="88" height="20" as="geometry" />
        </mxCell>
        <mxCell id="9WD0qOLTzXB-JECReqoN-316" value="" style="edgeStyle=orthogonalEdgeStyle;rounded=0;orthogonalLoop=1;jettySize=auto;html=1;" edge="1" parent="1" source="9WD0qOLTzXB-JECReqoN-313" target="9WD0qOLTzXB-JECReqoN-315">
          <mxGeometry relative="1" as="geometry" />
        </mxCell>
        <mxCell id="9WD0qOLTzXB-JECReqoN-318" value="" style="edgeStyle=orthogonalEdgeStyle;rounded=0;orthogonalLoop=1;jettySize=auto;html=1;" edge="1" parent="1" source="9WD0qOLTzXB-JECReqoN-313" target="9WD0qOLTzXB-JECReqoN-317">
          <mxGeometry relative="1" as="geometry" />
        </mxCell>
        <mxCell id="9WD0qOLTzXB-JECReqoN-313" value="Existe ya" style="rhombus;whiteSpace=wrap;html=1;rounded=0;" vertex="1" parent="1">
          <mxGeometry x="3737" y="1417.5" width="98" height="30" as="geometry" />
        </mxCell>
        <mxCell id="9WD0qOLTzXB-JECReqoN-315" value="Añadir a la lista de palabras vetadas" style="whiteSpace=wrap;html=1;rounded=0;" vertex="1" parent="1">
          <mxGeometry x="3612" y="1480.02" width="110" height="29.99" as="geometry" />
        </mxCell>
        <mxCell id="9WD0qOLTzXB-JECReqoN-317" value="Mostrar &quot;Esa palabra ya está introducida&quot;" style="whiteSpace=wrap;html=1;rounded=0;" vertex="1" parent="1">
          <mxGeometry x="3860" y="1477.1999999999998" width="120" height="35.63" as="geometry" />
        </mxCell>
        <mxCell id="9WD0qOLTzXB-JECReqoN-321" value="" style="edgeStyle=orthogonalEdgeStyle;rounded=0;orthogonalLoop=1;jettySize=auto;html=1;" edge="1" parent="1" source="9WD0qOLTzXB-JECReqoN-319" target="9WD0qOLTzXB-JECReqoN-320">
          <mxGeometry relative="1" as="geometry" />
        </mxCell>
        <mxCell id="9WD0qOLTzXB-JECReqoN-319" value="Borrar Palabra vetada" style="rounded=0;whiteSpace=wrap;html=1;" vertex="1" parent="1">
          <mxGeometry x="4015" y="1169" width="85" height="31" as="geometry" />
        </mxCell>
        <mxCell id="9WD0qOLTzXB-JECReqoN-323" value="" style="edgeStyle=orthogonalEdgeStyle;rounded=0;orthogonalLoop=1;jettySize=auto;html=1;" edge="1" parent="1" source="9WD0qOLTzXB-JECReqoN-320" target="9WD0qOLTzXB-JECReqoN-322">
          <mxGeometry relative="1" as="geometry" />
        </mxCell>
        <mxCell id="9WD0qOLTzXB-JECReqoN-320" value="Ver palabras vetadas" style="whiteSpace=wrap;html=1;rounded=0;" vertex="1" parent="1">
          <mxGeometry x="4007.5" y="1250" width="100" height="30" as="geometry" />
        </mxCell>
        <mxCell id="9WD0qOLTzXB-JECReqoN-325" value="" style="edgeStyle=orthogonalEdgeStyle;rounded=0;orthogonalLoop=1;jettySize=auto;html=1;" edge="1" parent="1" source="9WD0qOLTzXB-JECReqoN-322" target="9WD0qOLTzXB-JECReqoN-326">
          <mxGeometry relative="1" as="geometry">
            <mxPoint x="4075" y="1579" as="targetPoint" />
          </mxGeometry>
        </mxCell>
        <mxCell id="9WD0qOLTzXB-JECReqoN-322" value="Elegir palabra vetada" style="whiteSpace=wrap;html=1;rounded=0;" vertex="1" parent="1">
          <mxGeometry x="4002.5" y="1328.75" width="110" height="31.25" as="geometry" />
        </mxCell>
        <mxCell id="9WD0qOLTzXB-JECReqoN-326" value="Borrar palabra vetada" style="rounded=0;whiteSpace=wrap;html=1;" vertex="1" parent="1">
          <mxGeometry x="4010" y="1479.51" width="95" height="31" as="geometry" />
        </mxCell>
      </root>
    </mxGraphModel>
  </diagram>
</mxfile>
